<svg width="209" height="43" viewBox="0 0 209 43" fill="none" xmlns="http://www.w3.org/2000/svg">
<path d="M94.4548 6.45423H100.6L93.2515 36.5543H85.172L79.4132 14.5812L74.2131 36.5543H66.1336L58.2689 6.45423H64.3715L70.3882 29.8462L76.3189 6.45423H82.5505L88.8679 29.8462L94.4548 6.45423Z" fill="#FF5331"/>
<path d="M103.823 36.5543V6.45423H110.313L119.767 24.4712L129.222 6.45423H135.712V36.5543H130.168V15.5272L121.615 31.9532H117.962L109.367 15.5272V36.5543H103.823Z" fill="#FF5331"/>
<path d="M162.741 6.45423V11.9582H153.587V36.5543H148V11.9582H138.803V6.45423H162.741Z" fill="#FF5331"/>
<path d="M176.769 24.9442H194.261V28.7712H176.769V24.9442ZM174.964 36.5543H170.28L182.872 6.45423H188.201L200.793 36.5543H196.152L190.865 23.6327L185.579 10.7112L174.964 36.5543Z" fill="white"/>
<path d="M208.122 36.5543H204.039V6.45423H208.122V36.5543Z" fill="white"/>
<path d="M27.2912 24.8827C26.8954 23.4019 27.772 21.8799 29.2493 21.4831L33.7072 20.2858C39.6162 18.6987 45.6898 22.2137 47.2731 28.1367L49.6621 37.0738C50.058 38.5546 49.1813 40.0766 47.7041 40.4734L43.2461 41.6707C37.3372 43.2578 31.2635 39.7428 29.6802 33.8198L27.2912 24.8827Z" fill="#FF5331"/>
<path d="M1.38503 36.8845C0.0605731 36.118 -0.393218 34.4204 0.371455 33.0928L2.67906 29.0864C5.73775 23.7759 12.512 21.9564 17.8099 25.0224L25.8036 29.6486C27.1281 30.4151 27.5819 32.1127 26.8172 33.4403L24.5096 37.4467C21.4509 42.7572 14.6766 44.5767 9.37881 41.5107L1.38503 36.8845Z" fill="#FF5331"/>
<path d="M18.792 22.5195C17.3148 22.9163 15.7964 22.0375 15.4006 20.5568L14.2061 16.0882C12.6228 10.1652 16.1294 4.07705 22.0383 2.48998L30.9542 0.0952789C32.4315 -0.301488 33.9499 0.577257 34.3457 2.05801L35.5402 6.52658C37.1235 12.4496 33.6169 18.5377 27.7079 20.1248L18.792 22.5195Z" fill="#FF5331"/>
</svg>
