<svg xmlns="http://www.w3.org/2000/svg" width="218" height="46" viewBox="0 0 218 46" fill="none">
    <path d="M13.5119 22.9405C13.5119 19.4286 16.369 16.5119 19.9405 16.5119C23.5119 16.5119 26.369 19.369 26.369 22.9405C26.369 26.5119 23.5119 29.369 19.9405 29.369C16.369 29.369 13.5119 26.4524 13.5119 22.9405Z" fill="#F0B51C"/>
    <path d="M0.77381 14.369H24.8214C25.2381 14.369 25.5952 14.0119 25.5952 13.5952V3.77381C25.5952 3.35714 25.2381 3 24.8214 3H0.77381C0.357143 3 0 3.35714 0 3.77381V13.5952C0 14.0119 0.357143 14.369 0.77381 14.369Z" fill="#F0B51C"/>
    <path d="M39.0476 31.4524H15C14.5833 31.4524 14.2262 31.8095 14.2262 32.2262V42.0476C14.2262 42.4643 14.5833 42.8214 15 42.8214H39.0476C39.4643 42.8214 39.8214 42.4643 39.8214 42.0476V32.2262C39.881 31.8095 39.5238 31.4524 39.0476 31.4524Z" fill="#F0B51C"/>
    <path d="M39.0476 3H29.2857C28.869 3 28.5119 3.35714 28.5119 3.77381V27.8214C28.5119 28.2381 28.869 28.5952 29.2857 28.5952H39.1071C39.5238 28.5952 39.8809 28.2381 39.8809 27.8214V3.77381C39.8809 3.35714 39.5238 3 39.0476 3Z" fill="#F0B51C"/>
    <path d="M10.5952 17.2262H0.773809C0.357143 17.2262 0 17.5833 0 18V42.0476C0 42.4643 0.357143 42.8214 0.773809 42.8214H10.5952C11.0119 42.8214 11.369 42.4643 11.369 42.0476V18C11.369 17.5833 11.0119 17.2262 10.5952 17.2262Z" fill="#F0B51C"/>
    <path d="M66.978 19.168C68.294 19.168 69.106 18.986 69.946 18.678L69.526 17.208C68.812 17.418 68.168 17.53 67.216 17.53C65.116 17.53 63.576 16.382 63.576 13.974C63.576 11.594 65.046 10.544 66.95 10.558C68.056 10.572 68.546 10.712 69.4 10.964L69.918 9.55C69.246 9.242 68.378 8.948 66.922 8.948C63.618 8.948 61.616 10.95 61.616 14.114C61.616 17.25 63.478 19.168 66.978 19.168Z" fill="white"/>
    <path d="M74.4771 19.168C75.4291 19.168 76.4231 19 77.1791 18.748L76.8851 17.334C76.1571 17.53 75.3451 17.656 74.8131 17.656C73.4551 17.656 72.4051 17.376 72.4051 15.696H77.3891V15.024C77.3891 12.63 76.4651 11.174 74.2531 11.174C72.0831 11.174 70.5431 12.238 70.5431 15.304C70.5431 18.3 72.0691 19.168 74.4771 19.168ZM72.4471 14.45C72.5311 13.19 73.1611 12.518 74.0991 12.518C75.0231 12.518 75.4851 13.302 75.4711 14.45H72.4471Z" fill="white"/>
    <path d="M78.9891 19H80.8511V13.386C81.3271 13.106 82.0411 12.784 82.8111 12.784C83.8331 12.784 84.0571 13.204 84.0571 14.366V19H85.9051V14.156C85.9051 12.574 85.7511 11.16 83.4131 11.16C82.3491 11.16 81.4111 11.748 80.8511 12.168V11.356H78.9891V19Z" fill="white"/>
    <path d="M90.9415 19.182C91.4735 19.182 92.3975 19.042 92.9015 18.846L92.6915 17.362C92.2155 17.488 91.6555 17.586 91.1655 17.586C90.4515 17.586 90.1295 17.376 90.1295 16.62V12.784H92.5095V11.356H90.1295V9.788H88.2815V11.356H87.1615V12.784H88.2815V16.718C88.2815 18.608 89.2615 19.182 90.9415 19.182Z" fill="white"/>
    <path d="M94.1512 19H96.0132V13.652C96.3492 13.232 97.0492 12.784 97.8192 12.784C98.2532 12.784 98.4352 12.798 98.7992 12.868L99.0652 11.328C98.8132 11.244 98.5052 11.202 98.0712 11.202C97.1192 11.202 96.3772 11.86 96.0132 12.378V11.356H94.1512V19Z" fill="white"/>
    <path d="M102.029 19.126C103.037 19.126 103.821 18.636 104.367 18.202C104.535 18.874 105.417 19.07 106.229 19.07C106.397 19.07 106.565 19.07 106.705 19.056L106.761 17.642C106.355 17.628 106.033 17.544 106.033 17.166V13.456C106.033 11.818 105.053 11.174 102.939 11.174C101.791 11.174 100.839 11.426 100.083 11.734L100.461 13.106C101.119 12.91 101.903 12.756 102.617 12.756C103.737 12.756 104.199 12.994 104.199 13.876V14.534L102.687 14.548C101.273 14.562 99.5372 14.954 99.5372 16.872C99.5372 18.342 100.475 19.126 102.029 19.126ZM102.449 17.67C101.861 17.67 101.357 17.404 101.357 16.732C101.357 16.102 101.917 15.738 102.799 15.724L104.199 15.668V17.18C103.667 17.432 103.037 17.67 102.449 17.67Z" fill="white"/>
    <path d="M108.247 19H110.109V8.444H108.247V19Z" fill="white"/>
    <path d="M117.772 12.77C118.052 12.7 118.458 12.602 118.864 12.602C120.334 12.602 120.754 13.4 120.754 14.898C120.754 16.438 120.012 17.67 118.64 17.67C118.136 17.67 117.73 17.558 117.422 17.488V8.444H115.574V18.692C116.358 18.944 117.128 19.154 118.598 19.154C120.698 19.154 122.658 18.062 122.658 14.8C122.658 12.252 121.37 11.188 119.2 11.188C118.556 11.188 117.982 11.342 117.66 11.468L117.772 12.77Z" fill="white"/>
    <path d="M126.133 19.126C127.141 19.126 127.925 18.636 128.471 18.202C128.639 18.874 129.521 19.07 130.333 19.07C130.501 19.07 130.669 19.07 130.809 19.056L130.865 17.642C130.459 17.628 130.137 17.544 130.137 17.166V13.456C130.137 11.818 129.157 11.174 127.043 11.174C125.895 11.174 124.943 11.426 124.187 11.734L124.565 13.106C125.223 12.91 126.007 12.756 126.721 12.756C127.841 12.756 128.303 12.994 128.303 13.876V14.534L126.791 14.548C125.377 14.562 123.641 14.954 123.641 16.872C123.641 18.342 124.579 19.126 126.133 19.126ZM126.553 17.67C125.965 17.67 125.461 17.404 125.461 16.732C125.461 16.102 126.021 15.738 126.903 15.724L128.303 15.668V17.18C127.771 17.432 127.141 17.67 126.553 17.67Z" fill="white"/>
    <path d="M132.35 19H134.212V13.386C134.688 13.106 135.402 12.784 136.172 12.784C137.194 12.784 137.418 13.204 137.418 14.366V19H139.266V14.156C139.266 12.574 139.112 11.16 136.774 11.16C135.71 11.16 134.772 11.748 134.212 12.168V11.356H132.35V19Z" fill="white"/>
    <path d="M143.113 8.444H141.251V19H143.113V15.36L144.891 17.684C145.871 18.958 146.823 19.098 147.775 19.154L148.027 17.74C147.257 17.53 146.711 17.11 146.109 16.41L144.849 14.898L147.803 11.356H145.759L143.113 14.744V8.444Z" fill="white"/>
    <path d="M65.144 35.168C67.146 35.168 68.63 33.866 68.63 31.178C68.63 28.616 67.51 27.16 65.242 27.16C63.198 27.16 61.728 28.616 61.728 31.262C61.728 33.768 63.03 35.168 65.144 35.168ZM65.228 34.258C63.408 34.258 62.862 32.788 62.862 31.192C62.862 29.75 63.352 28.07 65.2 28.07C67.076 28.07 67.51 29.764 67.51 31.178C67.51 32.704 67.062 34.258 65.228 34.258Z" fill="white"/>
    <path d="M70.9072 37.87H72.0132V28.252H73.6512V27.356H72.0132V26.824C72.0132 25.676 72.4472 25.228 73.3992 25.228C73.9312 25.228 74.1552 25.284 74.3792 25.34L74.5612 24.444C74.2672 24.346 73.9312 24.29 73.3852 24.29C72.0272 24.29 70.9072 24.976 70.9072 26.838V27.356H69.7872V28.252H70.9072V37.87Z" fill="white"/>
    <path d="M77.708 35H78.926L80.396 31.304H84.302L85.618 35H86.864L83.266 25.102H81.782L77.708 35ZM80.746 30.38L82.454 25.914L83.994 30.38H80.746Z" fill="white"/>
    <path d="M88.3166 35H89.4226V29.372C89.7866 28.812 90.4866 28.154 91.4106 28.154C91.8586 28.154 92.0826 28.196 92.3206 28.252L92.5026 27.314C92.3626 27.272 92.0546 27.188 91.6066 27.188C90.5286 27.188 89.7726 27.804 89.4226 28.378V27.356H88.3166V35Z" fill="white"/>
    <path d="M93.799 35H94.905V29.134C95.507 28.644 96.403 28.14 97.131 28.14C98.517 28.14 98.657 29.092 98.657 30.282V35H99.749V30.072C99.749 29.75 99.721 29.4 99.665 29.078C100.323 28.602 101.107 28.154 101.947 28.154C103.333 28.154 103.501 29.092 103.501 30.282V35H104.607V30.072C104.607 28.756 104.467 27.174 102.227 27.174C101.023 27.174 100.085 27.832 99.483 28.308C99.189 27.678 98.587 27.174 97.369 27.174C96.431 27.174 95.521 27.762 94.905 28.252V27.356H93.799V35Z" fill="white"/>
    <path d="M110.075 35.168C111.069 35.168 111.909 34.986 112.483 34.762L112.301 33.866C111.657 34.076 110.957 34.216 110.411 34.216C108.815 34.216 107.625 33.824 107.583 31.388H112.623V30.982C112.623 28.448 111.727 27.16 109.837 27.16C107.919 27.16 106.463 28.35 106.463 31.318C106.463 34.244 107.849 35.168 110.075 35.168ZM107.597 30.562C107.723 28.854 108.549 28.028 109.697 28.028C110.915 28.028 111.475 29.022 111.461 30.562H107.597Z" fill="white"/>
    <path d="M114.539 35H115.645V29.078C116.275 28.63 117.143 28.14 118.025 28.14C119.425 28.14 119.607 28.966 119.607 30.282V35H120.685V30.072C120.685 28.756 120.559 27.16 118.319 27.16C117.185 27.16 116.345 27.692 115.645 28.224V27.356H114.539V35Z" fill="white"/>
    <path d="M122.961 35H124.081V27.356H122.961V35ZM123.507 25.928L124.445 24.99L123.507 24.066L122.597 24.99L123.507 25.928Z" fill="white"/>
    <path d="M128.099 35.126C129.373 35.126 130.143 34.538 130.675 34.118C130.759 34.804 131.487 35.084 132.103 35.084C132.243 35.084 132.383 35.07 132.453 35.056L132.495 34.202C132.131 34.202 131.669 34.076 131.669 33.502V29.274C131.669 27.762 130.647 27.16 128.939 27.16C127.931 27.16 127.063 27.384 126.475 27.636L126.727 28.504C127.301 28.294 128.029 28.126 128.701 28.126C130.059 28.126 130.591 28.42 130.591 29.638V30.618L128.771 30.646C127.525 30.674 125.845 31.08 125.845 32.942C125.845 34.356 126.741 35.126 128.099 35.126ZM128.393 34.23C127.539 34.23 126.909 33.866 126.909 32.844C126.909 32.074 127.567 31.5 128.757 31.458L130.591 31.388V33.376C130.017 33.782 129.219 34.23 128.393 34.23Z" fill="white"/>
</svg>