<svg width="582" height="100" viewBox="0 0 582 100" fill="none" xmlns="http://www.w3.org/2000/svg">
<path fill-rule="evenodd" clip-rule="evenodd" d="M240.757 19.8813H254.469V79.9626H240.757V19.8813ZM168.188 20.0876H228.225V33.3626H204.863V80.1188H191.55V33.3626H168.188V20.0876Z" fill="#2A2D30"/>
<path d="M60.0375 39.9188H99.8312V60.1813H60.0375V100H39.7937V60.1813H0V39.9188H39.7937V0.0999975H60.0375V39.9188ZM120.025 0V100H140.269V0H120.025Z" fill="#1DAFF7"/>
<path fill-rule="evenodd" clip-rule="evenodd" d="M296.316 94.4566V5.53787H300.341V94.4566H296.316Z" fill="#62636B"/>
<path d="M366.693 33.4435V66.6623H361.174V42.3623L345.037 66.6623H339.468V33.4435H345.037V57.7435L361.174 33.4435H366.693Z" fill="#62636B"/>
<path d="M370.243 38.4875V33.4375H396.762V38.4875H386.337V66.6563H380.724V38.4875H370.249H370.243Z" fill="#62636B"/>
<path d="M395.249 56.325V51.3687H410.255V56.325H395.249Z" fill="#62636B"/>
<path d="M410.411 66.6564L418.811 54.5752L410.505 42.5939H416.686L422.299 51.0377L427.818 42.5939H433.761L425.505 54.7689L433.855 66.6564H427.63L422.018 58.3064L416.405 66.6564H410.411Z" fill="#62636B"/>
<path d="M445.5 42.0312C452.575 42.0312 457.344 47.175 457.344 54.6313C457.344 62.0875 452.582 67.2313 445.5 67.2313C438.419 67.2313 433.656 62.0875 433.656 54.6313C433.656 47.175 438.419 42.0312 445.5 42.0312ZM439.132 54.625C439.132 59.25 441.538 62.4563 445.5 62.4563C449.463 62.4563 451.869 59.25 451.869 54.625C451.869 50 449.463 46.7938 445.5 46.7938C441.538 46.7938 439.132 50 439.132 54.625Z" fill="#62636B"/>
<path d="M457.686 66.7502V62.0314H458.442C461.13 62.0314 462.03 60.6627 462.311 57.0314L463.492 42.5939H481.186V66.6564H475.805V47.3127H468.255L467.405 57.4064C466.886 64.0564 464.43 66.7502 459.148 66.7502H457.686Z" fill="#62636B"/>
<path d="M510.667 61.9377V72.6939H505.48V66.6564H488.492V72.6939H483.305V61.9377H485.242C486.849 61.0439 487.649 58.1189 487.93 54.4377L488.824 42.5939H507.18V61.9377H510.674H510.667ZM491.042 61.9377H501.799V47.3127H493.592L493.024 54.6252C492.786 57.6002 492.505 60.2877 491.042 61.9377Z" fill="#62636B"/>
<path d="M534.737 42.5939V66.6564H529.455V50.6627L518.555 66.6564H513.368V42.5939H518.649V58.5877L529.549 42.5939H534.737Z" fill="#62636B"/>
<path d="M544.732 66.6564H539.351V42.5939H544.732V51.8439H555.063V42.5939H560.444V66.6564H555.063V56.6064H544.732V66.6564Z" fill="#62636B"/>
<path d="M565.063 66.6564V42.5939H581.575V47.3127H570.438V66.6564H565.057H565.063Z" fill="#62636B"/>
</svg>
