<svg width="279" height="104" viewBox="0 0 279 104" fill="none" xmlns="http://www.w3.org/2000/svg">
<path d="M92.2181 29.4828C92.2024 29.7815 92.1945 30.0881 92.1945 30.4025C92.1945 31.0313 92.2338 31.7545 92.3124 32.5719C92.391 33.3737 92.5247 34.2069 92.7133 35.0716C92.9177 35.9205 93.1692 36.6594 93.4679 37.2882C93.7666 37.9013 94.1046 38.31 94.4819 38.5144L91.5342 44.1739C90.8425 43.8123 90.1744 43.2857 89.5298 42.594C88.8853 41.8865 88.3115 41.0769 87.8084 40.1651C87.3211 39.2376 86.928 38.2314 86.6293 37.1467C86.3464 36.0462 86.2049 34.9222 86.2049 33.7746C85.9691 34.0261 85.6311 34.4113 85.1909 34.9301C84.7664 35.4489 84.2555 36.0305 83.6581 36.6751C83.0764 37.3039 82.4083 37.9721 81.6537 38.6795C80.8991 39.3712 80.0738 40.0393 79.1777 40.6839C78.2973 41.3284 77.3383 41.918 76.3008 42.4525C75.2789 42.9713 74.202 43.3643 73.0701 43.6316C72.5985 43.7573 72.0404 43.8595 71.3959 43.9381C70.767 44.0167 70.0832 44.056 69.3443 44.056C68.6054 44.056 67.8351 44.001 67.0333 43.8909C66.2316 43.7809 65.4377 43.5765 64.6516 43.2778C63.8656 42.9949 63.1031 42.6176 62.3642 42.1459C61.6411 41.6586 60.9729 41.0533 60.3598 40.3302C59.7467 39.5913 59.2122 38.7109 58.7563 37.6891C58.3161 36.6672 57.9939 35.4803 57.7895 34.1283C57.6166 32.9964 57.4829 31.8959 57.3886 30.8269C57.31 29.7422 57.255 28.7754 57.2235 27.9264C57.1921 27.1718 57.1764 26.4487 57.1764 25.757V8.70772H63.5669V27.95C63.5669 29.8051 63.7162 31.3693 64.0149 32.6427C64.3293 33.9161 64.7459 34.9458 65.2647 35.7318C65.7992 36.5022 66.4202 37.0602 67.1277 37.4061C67.8508 37.7362 68.6211 37.9013 69.4386 37.9013C70.2875 37.9013 71.1679 37.752 72.0797 37.4533C73.0072 37.1388 73.9191 36.7301 74.8151 36.227C75.7112 35.724 76.5759 35.1502 77.4091 34.5056C78.258 33.8611 79.0205 33.2086 79.6965 32.5484C81.2685 31.0234 82.5419 29.6321 83.5166 28.3745C84.507 27.1011 85.2774 26.0242 85.8276 25.1439V8.70772H92.2181V29.4828ZM131.599 29.4828C131.583 29.7815 131.575 30.0881 131.575 30.4025C131.575 31.0313 131.615 31.7545 131.693 32.5719C131.772 33.3737 131.905 34.2069 132.094 35.0716C132.298 35.9205 132.55 36.6594 132.849 37.2882C133.147 37.9013 133.485 38.31 133.863 38.5144L130.915 44.1739C130.223 43.8123 129.555 43.2857 128.911 42.594C128.266 41.8865 127.692 41.0769 127.189 40.1651C126.702 39.2376 126.309 38.2314 126.01 37.1467C125.727 36.0462 125.586 34.9222 125.586 33.7746C125.35 34.0261 125.012 34.4113 124.572 34.9301C124.147 35.4489 123.636 36.0305 123.039 36.6751C122.457 37.3039 121.789 37.9721 121.034 38.6795C120.28 39.3712 119.454 40.0393 118.558 40.6839C117.678 41.3284 116.719 41.918 115.681 42.4525C114.66 42.9713 113.583 43.3643 112.451 43.6316C111.979 43.7573 111.421 43.8595 110.777 43.9381C110.148 44.0167 109.464 44.056 108.725 44.056C107.986 44.056 107.216 44.001 106.414 43.8909C105.612 43.7809 104.818 43.5765 104.032 43.2778C103.246 42.9949 102.484 42.6176 101.745 42.1459C101.022 41.6586 100.354 41.0533 99.7405 40.3302C99.1274 39.5913 98.5929 38.7109 98.137 37.6891C97.6968 36.6672 97.3745 35.4803 97.1702 34.1283C96.9972 32.9964 96.8636 31.8959 96.7693 30.8269C96.6907 29.7422 96.6357 28.7754 96.6042 27.9264C96.5728 27.1718 96.5571 26.4487 96.5571 25.757V8.70772H102.948V27.95C102.948 29.8051 103.097 31.3693 103.396 32.6427C103.71 33.9161 104.127 34.9458 104.645 35.7318C105.18 36.5022 105.801 37.0602 106.508 37.4061C107.231 37.7362 108.002 37.9013 108.819 37.9013C109.668 37.9013 110.549 37.752 111.46 37.4533C112.388 37.1388 113.3 36.7301 114.196 36.227C115.092 35.724 115.957 35.1502 116.79 34.5056C117.639 33.8611 118.401 33.2086 119.077 32.5484C120.649 31.0234 121.923 29.6321 122.897 28.3745C123.888 27.1011 124.658 26.0242 125.208 25.1439V8.70772H131.599V29.4828ZM148.907 38.7031C149.599 38.7031 150.307 38.6087 151.03 38.4201C151.769 38.2157 152.39 37.9406 152.893 37.5948L155.51 42.2874C154.441 42.9163 153.333 43.3643 152.185 43.6316C151.038 43.9145 149.866 44.056 148.672 44.056C147.791 44.056 146.879 43.8988 145.936 43.5844C144.993 43.2857 144.105 42.8219 143.272 42.1931C142.454 41.5485 141.731 40.7468 141.102 39.7878C140.473 38.8288 140.072 37.8699 139.899 36.9109C139.726 35.9362 139.64 35.0951 139.64 34.3877C139.64 33.6174 139.734 32.6034 139.923 31.3457C140.112 30.0881 140.654 28.4452 141.55 26.4172C141.959 25.5212 142.391 24.5386 142.847 23.4696C143.319 22.4006 143.798 21.3158 144.285 20.2154C144.773 19.0992 145.252 17.9987 145.724 16.914C146.211 15.8135 146.667 14.8074 147.092 13.8956H140.041V18.7062H134.853V8.70772H154.072V13.6362L149.167 23.3517C147.988 25.6941 147.092 27.8164 146.479 29.7186C145.865 31.6051 145.551 32.8942 145.535 33.5859C145.52 34.2777 145.512 34.6471 145.512 34.6943C145.512 35.9519 145.787 36.9345 146.337 37.6419C146.887 38.3494 147.744 38.7031 148.907 38.7031ZM177.936 8.70772V43.2778H171.451V28.681H164.164V43.2778H157.68V8.70772H164.164V23.2338H171.451V8.70772H177.936ZM204.323 8.70772V43.2778H198.357V20.1446L187.887 43.2778H181.874V8.70772H187.84V31.8409L198.31 8.68414L204.323 8.70772ZM234.555 24.743C233.768 26.5351 233.132 28.0758 232.644 29.3649C232.173 30.6383 231.811 31.7309 231.56 32.6427C231.308 33.5388 231.159 34.1912 231.112 34.5999C231.08 34.993 231.064 35.2916 231.064 35.496C231.064 35.8104 231.096 36.1249 231.159 36.4393C231.237 36.7537 231.371 37.0524 231.56 37.3354C231.764 37.6026 231.984 37.8777 232.22 38.1607C232.471 38.4437 232.723 38.766 232.975 39.1275C233.226 39.4891 233.454 39.9607 233.658 40.5424C233.768 40.8411 233.823 41.1712 233.823 41.5328C233.823 41.69 233.8 41.9494 233.753 42.311C233.706 42.6726 233.541 43.1363 233.258 43.7023C232.99 44.284 232.621 44.8499 232.149 45.4001C231.693 45.9504 231.151 46.4377 230.522 46.8622C229.893 47.3024 229.186 47.6482 228.4 47.8998C227.614 48.167 226.765 48.3006 225.853 48.3006C225.366 48.3006 224.855 48.2535 224.32 48.1592C223.801 48.0805 223.267 47.9469 222.717 47.7583L224.957 42.8062C225.381 42.9634 225.806 43.042 226.23 43.042C226.843 43.042 227.339 42.8927 227.716 42.594C228.093 42.2953 228.329 41.9651 228.423 41.6036C228.266 41.4778 228.101 41.3206 227.928 41.1319C227.755 40.9433 227.598 40.7389 227.457 40.5188C227.315 40.283 227.197 40.0472 227.103 39.8114C227.009 39.5756 226.946 39.3633 226.914 39.1747C225.232 40.9354 223.518 42.1931 221.773 42.9477C220.028 43.6866 218.197 44.056 216.279 44.056C215.399 44.056 214.487 43.8988 213.544 43.5844C212.6 43.2857 211.712 42.8219 210.879 42.1931C210.046 41.5485 209.315 40.7468 208.686 39.7878C208.073 38.8288 207.68 37.862 207.507 36.8873C207.334 35.9126 207.247 35.0637 207.247 34.3405C207.247 33.5859 207.334 32.5877 207.507 31.3457C207.695 30.0881 208.246 28.4452 209.158 26.4172C209.535 25.5683 209.936 24.6722 210.36 23.729C210.8 22.77 211.241 21.7953 211.681 20.8049C212.137 19.8145 212.585 18.8319 213.025 17.8572C213.481 16.8668 213.913 15.9236 214.322 15.0275C215.265 12.9209 216.224 10.8143 217.199 8.70772H223.919L217.104 23.3517C215.957 25.7255 215.076 27.8636 214.463 29.7658C213.85 31.6523 213.536 32.9492 213.52 33.6567C213.504 34.3484 213.496 34.7336 213.496 34.8122C213.496 36.0227 213.764 36.9738 214.298 37.6655C214.833 38.3572 215.682 38.7031 216.845 38.7031C217.883 38.7031 218.81 38.4515 219.628 37.9485C220.461 37.4297 221.184 36.8087 221.797 36.0856C222.41 35.3624 222.929 34.6157 223.353 33.8453C223.778 33.075 224.116 32.4226 224.367 31.8881L235.191 8.70772H241.841L234.555 24.743ZM275.562 29.1527C275.547 29.4671 275.539 29.7894 275.539 30.1195C275.539 30.7326 275.57 31.44 275.633 32.2418C275.712 33.0436 275.853 33.8768 276.058 34.7414C276.262 35.5903 276.513 36.3292 276.812 36.9581C277.111 37.5712 277.449 37.9799 277.826 38.1843L274.784 43.8674C274.171 43.5844 273.621 43.2228 273.133 42.7826C272.662 42.3267 272.237 41.8158 271.86 41.2498C271.483 40.6839 271.153 40.0786 270.87 39.4341C270.602 38.7895 270.367 38.1293 270.162 37.4533C269.266 38.4122 268.268 39.2926 267.167 40.0944C266.067 40.8961 264.872 41.5957 263.583 42.1931C262.31 42.7748 260.95 43.2307 259.503 43.5608C258.073 43.9067 256.572 44.1032 254.999 44.1503C254.795 44.1503 254.599 44.1503 254.41 44.1503C253.089 44.1503 251.785 44.001 250.495 43.7023C249.206 43.4193 247.98 42.9949 246.817 42.4289C245.669 41.8472 244.632 41.1712 243.704 40.4009C242.792 39.6149 242.014 38.7738 241.369 37.8777C240.725 36.9816 240.23 36.0541 239.884 35.0951C239.554 34.1204 239.389 33.1693 239.389 32.2418C239.389 30.7012 239.64 29.3963 240.143 28.3273C240.662 27.2426 241.322 26.3386 242.124 25.6155C242.942 24.8766 243.853 24.2871 244.86 23.8469C245.881 23.4067 246.895 23.0687 247.901 22.8329C248.923 22.5971 249.882 22.432 250.778 22.3377C251.69 22.2434 252.445 22.1726 253.042 22.1255L253.372 22.1019C254.331 22.0233 255.432 21.9604 256.674 21.9132C257.931 21.8503 259.252 21.811 260.635 21.7953C262.019 21.7639 263.426 21.7482 264.856 21.7482C266.303 21.7482 267.694 21.756 269.03 21.7717C269.03 20.8756 268.724 19.9481 268.111 18.9891C267.498 18.0145 266.656 17.1262 265.587 16.3245C264.518 15.507 263.245 14.8388 261.767 14.3201C260.305 13.7856 258.725 13.5183 257.027 13.5183C256.084 13.5183 255.109 13.6126 254.103 13.8013C253.113 13.9899 252.099 14.2965 251.061 14.7209C250.04 15.1454 249.002 15.6956 247.949 16.3716C246.895 17.0319 245.85 17.8415 244.812 18.8005L240.662 15.0511C241.794 13.7777 243.036 12.6851 244.388 11.7733C245.756 10.8615 247.155 10.1147 248.585 9.53307C250.032 8.9514 251.47 8.52693 252.901 8.25968C254.347 7.9767 255.723 7.83522 257.027 7.83522C259.354 7.83522 261.429 8.07889 263.253 8.56624C265.077 9.05358 266.672 9.69814 268.04 10.4999C269.423 11.2859 270.587 12.182 271.53 13.1882C272.489 14.1943 273.267 15.2161 273.864 16.2537C274.462 17.2913 274.894 18.2974 275.161 19.2721C275.429 20.2468 275.562 21.1036 275.562 21.8425C275.562 21.8582 275.547 21.8661 275.515 21.8661C275.499 21.8661 275.492 21.8739 275.492 21.8896H275.562V29.1527ZM247.218 35.4724C248.365 36.51 249.631 37.2725 251.014 37.7598C252.398 38.2472 253.828 38.4908 255.306 38.4908C256.91 38.4908 258.497 38.2236 260.069 37.6891C261.641 37.1546 263.08 36.4 264.385 35.4253C265.705 34.4349 266.829 33.2558 267.757 31.8881C268.684 30.5047 269.298 28.964 269.596 27.2662C268.26 27.2504 266.861 27.2426 265.399 27.2426C263.952 27.2426 262.53 27.2583 261.131 27.2897C259.731 27.3055 258.403 27.3369 257.145 27.3841C255.888 27.4312 254.787 27.4941 253.844 27.5727L253.49 27.5963C251.902 27.7378 250.598 27.9186 249.576 28.1387C248.554 28.3588 247.744 28.6496 247.147 29.0112C246.55 29.3728 246.133 29.8208 245.897 30.3553C245.661 30.8741 245.543 31.5029 245.543 32.2418C245.543 32.8392 245.693 33.4051 245.991 33.9397C246.306 34.4584 246.715 34.9694 247.218 35.4724Z" fill="white"/>
<mask id="path-2-outside-1_7_61" maskUnits="userSpaceOnUse" x="156.345" y="25.5017" width="121" height="63" fill="black">
<rect fill="white" x="156.345" y="25.5017" width="121" height="63"/>
<path d="M197.167 33.0167C199.882 33.1002 202.149 34.2493 203.967 36.4638C205.116 37.8218 205.147 39.2947 204.061 40.8824C203.434 41.8226 202.264 43.0239 200.551 44.4863C199.465 45.4055 198.18 46.3874 196.696 47.432L194.691 48.7795L192.685 50.1271C192.267 50.3987 191.776 50.3778 191.212 50.0644C190.669 49.7301 190.377 49.2914 190.335 48.7482C190.293 48.3304 190.46 47.7663 190.836 47.056C191.233 46.3248 191.776 45.5309 192.466 44.6743L193.406 43.5775L194.346 42.512L195.098 41.6345L195.85 40.7258C196.394 40.0572 196.864 39.4409 197.261 38.8768L197.417 38.6888L197.543 38.5008C197.647 38.3545 197.699 38.1874 197.699 37.9994C196.404 38.2292 194.921 38.6575 193.249 39.2842C183.033 43.1283 174.353 48.7586 167.208 56.1752C166.372 57.0527 165.703 57.857 165.202 58.5882C164.742 59.2568 164.429 59.894 164.262 60.4998C163.928 61.816 164.346 62.7666 165.515 63.3516C167.061 64.1664 169.454 64.8244 172.692 65.3258L175.669 65.7646C176.797 65.9317 177.779 66.0988 178.615 66.266C180.829 66.6838 182.751 67.2061 184.381 67.8329C186.574 68.6685 188.256 69.7131 189.426 70.9666C191.181 72.826 191.066 74.5914 189.081 76.2627C188.35 76.8895 187.243 77.5998 185.76 78.3937C179.367 81.8408 173.026 84.3896 166.738 86.0401C164.941 86.5415 163.51 86.3952 162.444 85.6013C162.235 85.4342 162.079 85.2984 161.974 85.1939C161.494 84.7134 161.285 84.3374 161.348 84.0658C161.41 83.7942 161.755 83.533 162.382 83.2823C165.223 82.1333 168.294 80.8276 171.595 79.3651L174.478 78.1116L177.33 76.8268C179.461 75.8658 181.341 74.957 182.971 74.1004L183.691 73.693L184.412 73.2543C184.955 72.92 185.404 72.5753 185.76 72.2201C186.177 71.8232 186.365 71.5098 186.324 71.28C186.282 71.0711 186 70.8622 185.478 70.6533C183.744 70.0056 181.466 69.4938 178.646 69.1177L176.233 68.8043L173.851 68.491C171.992 68.2403 170.415 67.9164 169.119 67.5195C165.651 66.4958 162.935 64.9602 160.971 62.9128C158.611 60.4894 158.391 57.8779 160.313 55.0784C161.442 53.428 163.405 51.3701 166.205 48.9049C173.183 42.6791 181.351 37.8113 190.711 34.3015C193.26 33.3823 195.412 32.954 197.167 33.0167ZM215.955 74.6018C215.265 74.957 214.576 74.9987 213.886 74.7272C211.066 73.5363 209.98 71.6038 210.627 68.9297C211.212 66.6525 211.923 64.7618 212.758 63.2576C213.03 62.8397 213.187 62.4428 213.228 62.0667L212.194 62.9128C211.484 63.5187 210.69 64.229 209.813 65.0438L207.462 67.2374C205.457 69.1177 203.858 70.5383 202.668 71.4994C201.414 72.5231 200.495 73.8915 199.91 75.6046C199.722 76.1269 199.607 76.7223 199.565 77.3909L199.534 78.2683L199.565 79.1771C199.586 80.2844 199.398 80.9529 199.001 81.1827C198.646 81.3707 198.009 81.2976 197.089 80.9634C196.296 80.65 195.658 80.0755 195.178 79.2398C194.718 78.4668 194.499 77.6102 194.52 76.6701C194.561 75.3539 195.052 73.6826 195.993 71.6561L196.024 71.562C196.066 71.4785 196.118 71.374 196.181 71.2487C196.306 70.8935 196.473 70.4966 196.682 70.0578C197.246 68.7208 197.862 67.3001 198.531 65.7959C200.599 61.0744 202.647 56.6244 204.673 52.4461C211.066 39.1171 215.84 31.1051 218.994 28.41C219.433 28.0131 219.997 27.8355 220.687 27.8773C221.355 27.94 221.878 28.1802 222.254 28.5981C222.442 28.807 222.515 29.0472 222.473 29.3188L222.379 29.6635L222.254 30.0083C221.585 31.6796 220.781 33.3301 219.841 34.9596C216.456 40.9556 212.988 47.7872 209.436 55.4545C209.144 56.1021 208.726 56.9378 208.183 57.9615L207.556 59.1837L206.929 60.4372C206.783 60.7296 206.71 60.9908 206.71 61.2206L207.243 60.7819L207.744 60.3118C209.771 58.4524 211.714 56.9796 213.573 55.8932C215.537 54.7024 217.459 54.8382 219.339 56.3006C220.53 57.1989 220.927 58.442 220.53 60.0298C220.342 60.761 220.039 61.5653 219.621 62.4428L219.026 63.6023L218.43 64.7618L217.553 66.36L216.675 67.9895C215.986 69.2431 215.485 70.3503 215.171 71.3113L215.077 71.562L215.015 71.7814C214.952 71.9903 214.941 72.1784 214.983 72.3455C215.338 72.2201 215.746 71.9903 216.205 71.6561C218.232 70.1519 220.478 67.9895 222.943 65.1692L223.758 64.2604L224.573 63.3516C224.907 63.0173 225.199 62.9651 225.45 63.1949C225.596 63.3411 225.617 63.4769 225.513 63.6023L225.356 63.7276C225.272 63.7694 225.22 63.8112 225.199 63.853C222.274 67.5717 220.081 70.3503 218.618 72.1888C217.636 73.4423 216.749 74.2466 215.955 74.6018ZM231.463 74.1317C229.583 75.5315 227.598 75.5733 225.509 74.2571C224.631 73.7139 223.921 73.014 223.378 72.1575C222.814 71.28 222.542 70.4026 222.563 69.5251V68.7417C222.479 66.945 223.138 65.096 224.537 63.1949C225.749 61.6071 227.431 60.0402 229.583 58.4942L230.491 57.8048L231.4 57.1154C233.364 55.5694 235.349 55.1098 237.354 55.7365C238.462 56.0708 239.36 56.7289 240.049 57.7108C240.739 58.7136 241.063 59.8 241.021 60.9699C241 61.4295 241.031 61.6802 241.115 61.722C241.178 61.7847 241.449 61.7638 241.93 61.6593C242.556 61.5131 243.256 61.2311 244.029 60.8132L245.032 60.2491L246.035 59.6851C246.787 59.3299 247.435 59.309 247.978 59.6224C248.709 60.0193 248.793 60.5312 248.229 61.1579C246.62 62.9546 244.364 64.0828 241.46 64.5424C240.582 64.6886 239.903 65.1587 239.423 65.9526C237.73 68.6894 235.077 71.4158 231.463 74.1317ZM233.625 61.3773C233.375 61.7116 233.448 61.9414 233.845 62.0667C234.262 62.1712 234.91 62.2443 235.788 62.2861C235.871 62.2652 235.986 62.2652 236.132 62.2861H236.32L236.508 62.3174C236.822 62.3383 237.031 62.2339 237.135 62.004C237.657 60.6252 237.824 59.3403 237.636 58.1495L237.605 57.9928L237.574 57.8675C237.511 57.763 237.417 57.7003 237.292 57.6794C237.083 57.6794 236.665 57.8361 236.038 58.1495C235.391 58.4629 235.056 58.7031 235.035 58.8703C234.952 59.309 234.764 59.7582 234.471 60.2178L234.033 60.8132L233.625 61.3773ZM228.549 69.7758L228.486 70.0578C228.444 70.3085 228.444 70.5279 228.486 70.7159C231.348 69.2535 233.719 67.2897 235.6 64.8244C234.283 64.5111 233.228 64.1037 232.434 63.6023C232.184 63.4351 231.975 63.4769 231.808 63.7276C230.032 65.9839 228.966 67.9164 228.611 69.5251L228.549 69.7758ZM252.592 72.1261C252.571 71.1651 252.686 69.7445 252.937 67.8642C252.979 67.5717 253.021 67.2583 253.062 66.9241C252.895 67.0285 252.749 67.1643 252.624 67.3315L252.498 67.5508L252.373 67.7702L251.433 69.1804L250.524 70.5906C249.793 71.6978 249.135 72.6171 248.55 73.3483C247.651 74.4347 246.774 75.0196 245.917 75.1032C245.04 75.1659 244.069 74.7272 243.003 73.787C241.666 72.5962 241.29 71.2278 241.875 69.6818C243.149 66.2764 244.298 63.3725 245.322 60.9699C245.928 59.591 247.077 57.9301 248.769 55.9872C249.25 55.4649 249.845 55.3396 250.555 55.6112C252.373 56.3006 252.864 57.4914 252.028 59.1837C250.127 62.9442 248.811 65.9108 248.08 68.0836C247.996 68.2925 247.944 68.4387 247.923 68.5223C248.55 67.9164 249.218 67.133 249.929 66.172L250.837 64.9185L251.746 63.6649C252.749 62.2861 253.522 61.2624 254.065 60.5939C254.379 60.1969 254.692 59.9671 255.005 59.9044C255.277 59.8417 255.653 59.9149 256.134 60.1238C257.659 60.8132 258.327 61.9936 258.139 63.6649C258.056 64.3962 257.878 65.4407 257.606 66.7987L257.324 68.3656C257.22 68.9506 257.136 69.4833 257.074 69.9638C257.032 70.2981 257.001 70.5592 256.98 70.7473C257.147 70.7264 257.272 70.6428 257.356 70.4966L257.45 70.3085L257.544 70.1205L258.327 68.6163L259.142 67.1434C259.769 65.9108 260.301 64.9185 260.74 64.1664C262.6 60.8446 265.462 57.5854 269.327 54.389L270.392 53.4802L271.489 52.6027C272.325 51.9342 273.098 51.4224 273.808 51.0672C274.309 50.8374 274.769 50.9001 275.187 51.2552C275.521 51.5477 275.532 51.8402 275.218 52.1327C269.661 57.5437 265.66 63.0591 263.216 68.679C262.944 69.2639 262.6 69.9534 262.182 70.7473L261.649 71.7814L261.085 72.7842C260.688 73.5572 260.218 74.2258 259.675 74.7898C258.964 75.5002 258.379 75.9598 257.92 76.1687C257.23 76.5238 256.489 76.5552 255.695 76.2627C253.668 75.4688 252.634 74.09 252.592 72.1261Z"/>
</mask>
<path d="M197.167 33.0167C199.882 33.1002 202.149 34.2493 203.967 36.4638C205.116 37.8218 205.147 39.2947 204.061 40.8824C203.434 41.8226 202.264 43.0239 200.551 44.4863C199.465 45.4055 198.18 46.3874 196.696 47.432L194.691 48.7795L192.685 50.1271C192.267 50.3987 191.776 50.3778 191.212 50.0644C190.669 49.7301 190.377 49.2914 190.335 48.7482C190.293 48.3304 190.46 47.7663 190.836 47.056C191.233 46.3248 191.776 45.5309 192.466 44.6743L193.406 43.5775L194.346 42.512L195.098 41.6345L195.85 40.7258C196.394 40.0572 196.864 39.4409 197.261 38.8768L197.417 38.6888L197.543 38.5008C197.647 38.3545 197.699 38.1874 197.699 37.9994C196.404 38.2292 194.921 38.6575 193.249 39.2842C183.033 43.1283 174.353 48.7586 167.208 56.1752C166.372 57.0527 165.703 57.857 165.202 58.5882C164.742 59.2568 164.429 59.894 164.262 60.4998C163.928 61.816 164.346 62.7666 165.515 63.3516C167.061 64.1664 169.454 64.8244 172.692 65.3258L175.669 65.7646C176.797 65.9317 177.779 66.0988 178.615 66.266C180.829 66.6838 182.751 67.2061 184.381 67.8329C186.574 68.6685 188.256 69.7131 189.426 70.9666C191.181 72.826 191.066 74.5914 189.081 76.2627C188.35 76.8895 187.243 77.5998 185.76 78.3937C179.367 81.8408 173.026 84.3896 166.738 86.0401C164.941 86.5415 163.51 86.3952 162.444 85.6013C162.235 85.4342 162.079 85.2984 161.974 85.1939C161.494 84.7134 161.285 84.3374 161.348 84.0658C161.41 83.7942 161.755 83.533 162.382 83.2823C165.223 82.1333 168.294 80.8276 171.595 79.3651L174.478 78.1116L177.33 76.8268C179.461 75.8658 181.341 74.957 182.971 74.1004L183.691 73.693L184.412 73.2543C184.955 72.92 185.404 72.5753 185.76 72.2201C186.177 71.8232 186.365 71.5098 186.324 71.28C186.282 71.0711 186 70.8622 185.478 70.6533C183.744 70.0056 181.466 69.4938 178.646 69.1177L176.233 68.8043L173.851 68.491C171.992 68.2403 170.415 67.9164 169.119 67.5195C165.651 66.4958 162.935 64.9602 160.971 62.9128C158.611 60.4894 158.391 57.8779 160.313 55.0784C161.442 53.428 163.405 51.3701 166.205 48.9049C173.183 42.6791 181.351 37.8113 190.711 34.3015C193.26 33.3823 195.412 32.954 197.167 33.0167ZM215.955 74.6018C215.265 74.957 214.576 74.9987 213.886 74.7272C211.066 73.5363 209.98 71.6038 210.627 68.9297C211.212 66.6525 211.923 64.7618 212.758 63.2576C213.03 62.8397 213.187 62.4428 213.228 62.0667L212.194 62.9128C211.484 63.5187 210.69 64.229 209.813 65.0438L207.462 67.2374C205.457 69.1177 203.858 70.5383 202.668 71.4994C201.414 72.5231 200.495 73.8915 199.91 75.6046C199.722 76.1269 199.607 76.7223 199.565 77.3909L199.534 78.2683L199.565 79.1771C199.586 80.2844 199.398 80.9529 199.001 81.1827C198.646 81.3707 198.009 81.2976 197.089 80.9634C196.296 80.65 195.658 80.0755 195.178 79.2398C194.718 78.4668 194.499 77.6102 194.52 76.6701C194.561 75.3539 195.052 73.6826 195.993 71.6561L196.024 71.562C196.066 71.4785 196.118 71.374 196.181 71.2487C196.306 70.8935 196.473 70.4966 196.682 70.0578C197.246 68.7208 197.862 67.3001 198.531 65.7959C200.599 61.0744 202.647 56.6244 204.673 52.4461C211.066 39.1171 215.84 31.1051 218.994 28.41C219.433 28.0131 219.997 27.8355 220.687 27.8773C221.355 27.94 221.878 28.1802 222.254 28.5981C222.442 28.807 222.515 29.0472 222.473 29.3188L222.379 29.6635L222.254 30.0083C221.585 31.6796 220.781 33.3301 219.841 34.9596C216.456 40.9556 212.988 47.7872 209.436 55.4545C209.144 56.1021 208.726 56.9378 208.183 57.9615L207.556 59.1837L206.929 60.4372C206.783 60.7296 206.71 60.9908 206.71 61.2206L207.243 60.7819L207.744 60.3118C209.771 58.4524 211.714 56.9796 213.573 55.8932C215.537 54.7024 217.459 54.8382 219.339 56.3006C220.53 57.1989 220.927 58.442 220.53 60.0298C220.342 60.761 220.039 61.5653 219.621 62.4428L219.026 63.6023L218.43 64.7618L217.553 66.36L216.675 67.9895C215.986 69.2431 215.485 70.3503 215.171 71.3113L215.077 71.562L215.015 71.7814C214.952 71.9903 214.941 72.1784 214.983 72.3455C215.338 72.2201 215.746 71.9903 216.205 71.6561C218.232 70.1519 220.478 67.9895 222.943 65.1692L223.758 64.2604L224.573 63.3516C224.907 63.0173 225.199 62.9651 225.45 63.1949C225.596 63.3411 225.617 63.4769 225.513 63.6023L225.356 63.7276C225.272 63.7694 225.22 63.8112 225.199 63.853C222.274 67.5717 220.081 70.3503 218.618 72.1888C217.636 73.4423 216.749 74.2466 215.955 74.6018ZM231.463 74.1317C229.583 75.5315 227.598 75.5733 225.509 74.2571C224.631 73.7139 223.921 73.014 223.378 72.1575C222.814 71.28 222.542 70.4026 222.563 69.5251V68.7417C222.479 66.945 223.138 65.096 224.537 63.1949C225.749 61.6071 227.431 60.0402 229.583 58.4942L230.491 57.8048L231.4 57.1154C233.364 55.5694 235.349 55.1098 237.354 55.7365C238.462 56.0708 239.36 56.7289 240.049 57.7108C240.739 58.7136 241.063 59.8 241.021 60.9699C241 61.4295 241.031 61.6802 241.115 61.722C241.178 61.7847 241.449 61.7638 241.93 61.6593C242.556 61.5131 243.256 61.2311 244.029 60.8132L245.032 60.2491L246.035 59.6851C246.787 59.3299 247.435 59.309 247.978 59.6224C248.709 60.0193 248.793 60.5312 248.229 61.1579C246.62 62.9546 244.364 64.0828 241.46 64.5424C240.582 64.6886 239.903 65.1587 239.423 65.9526C237.73 68.6894 235.077 71.4158 231.463 74.1317ZM233.625 61.3773C233.375 61.7116 233.448 61.9414 233.845 62.0667C234.262 62.1712 234.91 62.2443 235.788 62.2861C235.871 62.2652 235.986 62.2652 236.132 62.2861H236.32L236.508 62.3174C236.822 62.3383 237.031 62.2339 237.135 62.004C237.657 60.6252 237.824 59.3403 237.636 58.1495L237.605 57.9928L237.574 57.8675C237.511 57.763 237.417 57.7003 237.292 57.6794C237.083 57.6794 236.665 57.8361 236.038 58.1495C235.391 58.4629 235.056 58.7031 235.035 58.8703C234.952 59.309 234.764 59.7582 234.471 60.2178L234.033 60.8132L233.625 61.3773ZM228.549 69.7758L228.486 70.0578C228.444 70.3085 228.444 70.5279 228.486 70.7159C231.348 69.2535 233.719 67.2897 235.6 64.8244C234.283 64.5111 233.228 64.1037 232.434 63.6023C232.184 63.4351 231.975 63.4769 231.808 63.7276C230.032 65.9839 228.966 67.9164 228.611 69.5251L228.549 69.7758ZM252.592 72.1261C252.571 71.1651 252.686 69.7445 252.937 67.8642C252.979 67.5717 253.021 67.2583 253.062 66.9241C252.895 67.0285 252.749 67.1643 252.624 67.3315L252.498 67.5508L252.373 67.7702L251.433 69.1804L250.524 70.5906C249.793 71.6978 249.135 72.6171 248.55 73.3483C247.651 74.4347 246.774 75.0196 245.917 75.1032C245.04 75.1659 244.069 74.7272 243.003 73.787C241.666 72.5962 241.29 71.2278 241.875 69.6818C243.149 66.2764 244.298 63.3725 245.322 60.9699C245.928 59.591 247.077 57.9301 248.769 55.9872C249.25 55.4649 249.845 55.3396 250.555 55.6112C252.373 56.3006 252.864 57.4914 252.028 59.1837C250.127 62.9442 248.811 65.9108 248.08 68.0836C247.996 68.2925 247.944 68.4387 247.923 68.5223C248.55 67.9164 249.218 67.133 249.929 66.172L250.837 64.9185L251.746 63.6649C252.749 62.2861 253.522 61.2624 254.065 60.5939C254.379 60.1969 254.692 59.9671 255.005 59.9044C255.277 59.8417 255.653 59.9149 256.134 60.1238C257.659 60.8132 258.327 61.9936 258.139 63.6649C258.056 64.3962 257.878 65.4407 257.606 66.7987L257.324 68.3656C257.22 68.9506 257.136 69.4833 257.074 69.9638C257.032 70.2981 257.001 70.5592 256.98 70.7473C257.147 70.7264 257.272 70.6428 257.356 70.4966L257.45 70.3085L257.544 70.1205L258.327 68.6163L259.142 67.1434C259.769 65.9108 260.301 64.9185 260.74 64.1664C262.6 60.8446 265.462 57.5854 269.327 54.389L270.392 53.4802L271.489 52.6027C272.325 51.9342 273.098 51.4224 273.808 51.0672C274.309 50.8374 274.769 50.9001 275.187 51.2552C275.521 51.5477 275.532 51.8402 275.218 52.1327C269.661 57.5437 265.66 63.0591 263.216 68.679C262.944 69.2639 262.6 69.9534 262.182 70.7473L261.649 71.7814L261.085 72.7842C260.688 73.5572 260.218 74.2258 259.675 74.7898C258.964 75.5002 258.379 75.9598 257.92 76.1687C257.23 76.5238 256.489 76.5552 255.695 76.2627C253.668 75.4688 252.634 74.09 252.592 72.1261Z" fill="#FF5331"/>
<path d="M197.167 33.0167L197.099 34.902L197.109 34.9023L197.167 33.0167ZM203.967 36.4638L202.509 37.6607L202.518 37.6716L202.527 37.6824L203.967 36.4638ZM204.061 40.8824L202.504 39.8172L202.497 39.8265L202.491 39.836L204.061 40.8824ZM200.551 44.4863L201.77 45.9264L201.776 45.9211L200.551 44.4863ZM196.696 47.432L197.749 48.9979L197.766 48.9864L197.783 48.9744L196.696 47.432ZM192.685 50.1271L193.713 51.7088L193.725 51.701L193.737 51.693L192.685 50.1271ZM191.212 50.0644L190.224 51.671L190.259 51.6931L190.296 51.7135L191.212 50.0644ZM190.335 48.7482L192.216 48.6035L192.214 48.582L192.212 48.5605L190.335 48.7482ZM190.836 47.056L189.178 46.1559L189.174 46.1646L189.169 46.1733L190.836 47.056ZM192.466 44.6743L191.034 43.4466L191.015 43.4687L190.996 43.4914L192.466 44.6743ZM193.406 43.5775L191.991 42.3293L191.982 42.3395L191.974 42.3498L193.406 43.5775ZM194.346 42.512L195.761 43.7602L195.77 43.75L195.778 43.7397L194.346 42.512ZM195.098 41.6345L196.531 42.8623L196.541 42.8499L196.552 42.8373L195.098 41.6345ZM195.85 40.7258L197.304 41.9285L197.309 41.922L197.314 41.9154L195.85 40.7258ZM197.261 38.8768L195.811 37.6691L195.762 37.7282L195.718 37.7912L197.261 38.8768ZM197.417 38.6888L198.866 39.8965L198.931 39.8191L198.987 39.7352L197.417 38.6888ZM197.543 38.5008L196.007 37.4043L195.99 37.429L195.973 37.4543L197.543 38.5008ZM197.699 37.9994H199.586V35.7487L197.37 36.1419L197.699 37.9994ZM193.249 39.2842L192.587 37.5178L192.585 37.5186L193.249 39.2842ZM167.208 56.1752L165.849 54.8664L165.842 54.8742L167.208 56.1752ZM165.202 58.5882L166.757 59.657L166.758 59.6551L165.202 58.5882ZM164.262 60.4998L162.443 59.9982L162.438 60.0168L162.433 60.0355L164.262 60.4998ZM165.515 63.3516L166.395 61.6827L166.377 61.6733L166.359 61.6642L165.515 63.3516ZM172.692 65.3258L172.403 67.1902L172.417 67.1922L172.692 65.3258ZM175.669 65.7646L175.945 63.8984L175.944 63.8982L175.669 65.7646ZM178.615 66.266L178.245 68.1158L178.255 68.1179L178.265 68.1198L178.615 66.266ZM184.381 67.8329L183.704 69.5936L183.709 69.5958L184.381 67.8329ZM189.426 70.9666L188.047 72.2538L188.054 72.2615L189.426 70.9666ZM189.081 76.2627L187.866 74.8197L187.86 74.825L187.854 74.8304L189.081 76.2627ZM185.76 78.3937L184.869 76.7304L184.864 76.7332L185.76 78.3937ZM166.738 86.0401L166.259 84.2154L166.245 84.2191L166.231 84.223L166.738 86.0401ZM162.444 85.6013L161.266 87.0744L161.291 87.0947L161.317 87.1141L162.444 85.6013ZM161.348 84.0658L163.186 84.49V84.49L161.348 84.0658ZM162.382 83.2823L163.082 85.0339L163.089 85.0312L162.382 83.2823ZM171.595 79.3651L170.843 77.635L170.831 77.6403L171.595 79.3651ZM174.478 78.1116L175.23 79.8417L175.242 79.8367L175.253 79.8316L174.478 78.1116ZM177.33 76.8268L178.105 78.5468L178.105 78.5465L177.33 76.8268ZM182.971 74.1004L183.848 75.7703L183.874 75.7569L183.899 75.7427L182.971 74.1004ZM183.691 73.693L184.62 75.3353L184.646 75.3203L184.672 75.3045L183.691 73.693ZM184.412 73.2543L185.393 74.8657L185.401 74.8609L184.412 73.2543ZM185.76 72.2201L184.46 70.8524L184.443 70.8691L184.426 70.8862L185.76 72.2201ZM186.324 71.28L188.18 70.9425L188.177 70.9263L188.174 70.91L186.324 71.28ZM185.478 70.6533L186.178 68.9017L186.158 68.8936L186.138 68.886L185.478 70.6533ZM178.646 69.1177L178.895 67.2477L178.889 67.2469L178.646 69.1177ZM176.233 68.8043L175.987 70.6747L175.99 70.6751L176.233 68.8043ZM173.851 68.491L173.599 70.3605L173.605 70.3613L173.851 68.491ZM169.119 67.5195L169.672 65.7158L169.663 65.7129L169.653 65.7102L169.119 67.5195ZM160.971 62.9128L162.333 61.607L162.328 61.6017L162.323 61.5965L160.971 62.9128ZM160.313 55.0784L161.869 56.1462L161.871 56.143L160.313 55.0784ZM166.205 48.9049L167.452 50.3207L167.461 50.3126L166.205 48.9049ZM190.711 34.3015L190.071 32.5269L190.06 32.531L190.049 32.5351L190.711 34.3015ZM197.167 33.0167L197.109 34.9023C199.247 34.9681 201.015 35.841 202.509 37.6607L203.967 36.4638L205.425 35.267C203.283 32.6575 200.517 31.2324 197.225 31.1311L197.167 33.0167ZM203.967 36.4638L202.527 37.6824C202.882 38.1023 202.961 38.4076 202.966 38.6271C202.971 38.8648 202.892 39.2494 202.504 39.8172L204.061 40.8824L205.618 41.9477C206.316 40.9277 206.764 39.782 206.738 38.5468C206.711 37.2935 206.201 36.1834 205.407 35.2453L203.967 36.4638ZM204.061 40.8824L202.491 39.836C202.015 40.5502 201.011 41.6134 199.326 43.0515L200.551 44.4863L201.776 45.9211C203.517 44.4343 204.853 43.095 205.63 41.9289L204.061 40.8824ZM200.551 44.4863L199.332 43.0462C198.298 43.9212 197.06 44.8689 195.61 45.8896L196.696 47.432L197.783 48.9744C199.3 47.906 200.631 46.8899 201.77 45.9264L200.551 44.4863ZM196.696 47.432L195.644 45.8661L193.639 47.2137L194.691 48.7795L195.743 50.3454L197.749 48.9979L196.696 47.432ZM194.691 48.7795L193.639 47.2137L191.633 48.5612L192.685 50.1271L193.737 51.693L195.743 50.3454L194.691 48.7795ZM192.685 50.1271L191.657 48.5453C191.706 48.5138 191.773 48.4804 191.856 48.4573C191.94 48.4343 192.019 48.4275 192.084 48.4303C192.209 48.4356 192.231 48.4724 192.129 48.4153L191.212 50.0644L190.296 51.7135C191.26 52.2491 192.532 52.4765 193.713 51.7088L192.685 50.1271ZM191.212 50.0644L192.201 48.4577C192.114 48.4039 192.122 48.3887 192.155 48.4382C192.171 48.4624 192.187 48.4933 192.199 48.5281C192.211 48.5625 192.215 48.5895 192.216 48.6035L190.335 48.7482L188.454 48.8929C188.55 50.1464 189.266 51.0819 190.224 51.671L191.212 50.0644ZM190.335 48.7482L192.212 48.5605C192.223 48.6716 192.198 48.6825 192.238 48.5477C192.275 48.4202 192.354 48.2203 192.504 47.9386L190.836 47.056L189.169 46.1733C188.753 46.9587 188.358 47.9404 188.458 48.9359L190.335 48.7482ZM190.836 47.056L192.494 47.956C192.823 47.3504 193.296 46.6517 193.935 45.8572L192.466 44.6743L190.996 43.4914C190.257 44.4101 189.643 45.2991 189.178 46.1559L190.836 47.056ZM192.466 44.6743L193.898 45.902L194.838 44.8052L193.406 43.5775L191.974 42.3498L191.034 43.4466L192.466 44.6743ZM193.406 43.5775L194.821 44.8256L195.761 43.7602L194.346 42.512L192.932 41.2639L191.991 42.3293L193.406 43.5775ZM194.346 42.512L195.778 43.7397L196.531 42.8623L195.098 41.6345L193.666 40.4068L192.914 41.2843L194.346 42.512ZM195.098 41.6345L196.552 42.8373L197.304 41.9285L195.85 40.7258L194.397 39.523L193.645 40.4318L195.098 41.6345ZM195.85 40.7258L197.314 41.9154C197.879 41.221 198.376 40.5696 198.803 39.9625L197.261 38.8768L195.718 37.7912C195.351 38.3123 194.908 38.8935 194.386 39.5361L195.85 40.7258ZM197.261 38.8768L198.71 40.0845L198.866 39.8965L197.417 38.6888L195.968 37.4811L195.811 37.6691L197.261 38.8768ZM197.417 38.6888L198.987 39.7352L199.112 39.5472L197.543 38.5008L195.973 37.4543L195.848 37.6424L197.417 38.6888ZM197.543 38.5008L199.078 39.5973C199.422 39.1157 199.586 38.5613 199.586 37.9994H197.699H195.813C195.813 37.9166 195.825 37.8146 195.859 37.703C195.895 37.5907 195.947 37.4895 196.007 37.4043L197.543 38.5008ZM197.699 37.9994L197.37 36.1419C195.929 36.3975 194.331 36.8639 192.587 37.5178L193.249 39.2842L193.912 41.0506C195.51 40.4511 196.879 40.0609 198.029 39.8569L197.699 37.9994ZM193.249 39.2842L192.585 37.5186C182.122 41.4554 173.2 47.2358 165.849 54.8664L167.208 56.1752L168.566 57.4841C175.505 50.2815 183.944 44.8012 193.914 41.0499L193.249 39.2842ZM167.208 56.1752L165.842 54.8742C164.96 55.8001 164.221 56.6833 163.646 57.5214L165.202 58.5882L166.758 59.6551C167.186 59.0307 167.784 58.3053 168.574 57.4763L167.208 56.1752ZM165.202 58.5882L163.648 57.5195C163.102 58.3133 162.68 59.1408 162.443 59.9982L164.262 60.4998L166.081 61.0015C166.178 60.6472 166.383 60.2002 166.757 59.657L165.202 58.5882ZM164.262 60.4998L162.433 60.0355C162.195 60.9752 162.174 61.9944 162.598 62.959C163.026 63.933 163.798 64.602 164.672 65.0389L165.515 63.3516L166.359 61.6642C166.208 61.5886 166.128 61.5246 166.09 61.4882C166.072 61.4703 166.063 61.4581 166.058 61.4521C166.054 61.4463 166.053 61.4429 166.052 61.4408C166.051 61.4403 166.04 61.4165 166.037 61.3489C166.035 61.2766 166.043 61.1521 166.09 60.9642L164.262 60.4998ZM165.515 63.3516L164.636 65.0205C166.464 65.9839 169.106 66.6796 172.403 67.1901L172.692 65.3258L172.98 63.4616C169.801 62.9693 167.659 62.3488 166.395 61.6827L165.515 63.3516ZM172.692 65.3258L172.417 67.1922L175.394 67.6309L175.669 65.7646L175.944 63.8982L172.967 63.4595L172.692 65.3258ZM175.669 65.7646L175.392 67.6307C176.499 67.7946 177.448 67.9566 178.245 68.1158L178.615 66.266L178.985 64.4161C178.11 64.2411 177.095 64.0688 175.945 63.8984L175.669 65.7646ZM178.615 66.266L178.265 68.1198C180.398 68.5222 182.205 69.0174 183.704 69.5936L184.381 67.8329L185.058 66.0721C183.297 65.3948 181.26 64.8454 178.964 64.4122L178.615 66.266ZM184.381 67.8329L183.709 69.5958C185.728 70.3647 187.132 71.2737 188.047 72.2538L189.426 70.9666L190.805 69.6794C189.38 68.1526 187.421 66.9723 185.052 66.07L184.381 67.8329ZM189.426 70.9666L188.054 72.2615C188.734 72.9822 188.784 73.3996 188.774 73.5626C188.762 73.734 188.65 74.16 187.866 74.8197L189.081 76.2627L190.297 77.7057C191.498 76.6941 192.435 75.4017 192.539 73.8077C192.643 72.2054 191.873 70.8104 190.798 69.6718L189.426 70.9666ZM189.081 76.2627L187.854 74.8304C187.275 75.326 186.307 75.9608 184.869 76.7304L185.76 78.3937L186.65 80.0569C188.179 79.2387 189.425 78.4529 190.309 77.695L189.081 76.2627ZM185.76 78.3937L184.864 76.7332C178.588 80.1174 172.387 82.6071 166.259 84.2154L166.738 86.0401L167.217 87.8648C173.666 86.1722 180.145 83.5642 186.655 80.0541L185.76 78.3937ZM166.738 86.0401L166.231 84.223C164.756 84.6345 164 84.4075 163.572 84.0886L162.444 85.6013L161.317 87.1141C163.02 88.3829 165.126 88.4484 167.245 87.8571L166.738 86.0401ZM162.444 85.6013L163.623 84.1282C163.432 83.9758 163.339 83.8909 163.308 83.86L161.974 85.1939L160.64 86.5279C160.818 86.7059 161.039 86.8926 161.266 87.0744L162.444 85.6013ZM161.974 85.1939L163.308 83.86C163.129 83.6808 163.091 83.6082 163.106 83.6354C163.117 83.6546 163.161 83.7365 163.192 83.8735C163.224 84.0168 163.245 84.2338 163.186 84.49L161.348 84.0658L159.509 83.6416C159.329 84.4242 159.596 85.085 159.808 85.4677C160.032 85.8709 160.339 86.2265 160.64 86.5279L161.974 85.1939ZM161.348 84.0658L163.186 84.49C163.13 84.7318 163.026 84.9056 162.946 85.01C162.869 85.1107 162.805 85.1607 162.792 85.1699C162.778 85.1807 162.79 85.1695 162.844 85.1413C162.896 85.114 162.973 85.0775 163.082 85.0339L162.382 83.2823L161.681 81.5308C161.288 81.6879 160.874 81.8898 160.514 82.1625C160.174 82.4201 159.682 82.8935 159.509 83.6416L161.348 84.0658ZM162.382 83.2823L163.089 85.0312C165.952 83.8733 169.043 82.5593 172.359 81.0899L171.595 79.3651L170.831 77.6403C167.546 79.0958 164.494 80.3933 161.674 81.5334L162.382 83.2823ZM171.595 79.3651L172.347 81.0952L175.23 79.8417L174.478 78.1116L173.726 76.3816L170.843 77.6351L171.595 79.3651ZM174.478 78.1116L175.253 79.8316L178.105 78.5468L177.33 76.8268L176.555 75.1068L173.703 76.3916L174.478 78.1116ZM177.33 76.8268L178.105 78.5465C180.262 77.5738 182.178 76.6484 183.848 75.7703L182.971 74.1004L182.093 72.4305C180.504 73.2655 178.659 74.1577 176.554 75.1071L177.33 76.8268ZM182.971 74.1004L183.899 75.7427L184.62 75.3353L183.691 73.693L182.763 72.0507L182.042 72.4581L182.971 74.1004ZM183.691 73.693L184.672 75.3045L185.393 74.8657L184.412 73.2543L183.431 71.6428L182.71 72.0816L183.691 73.693ZM184.412 73.2543L185.401 74.8609C186.037 74.4692 186.611 74.0368 187.094 73.5541L185.76 72.2201L184.426 70.8862C184.198 71.1138 183.873 71.3709 183.423 71.6476L184.412 73.2543ZM185.76 72.2201L187.059 73.5878C187.329 73.3312 187.615 73.0197 187.832 72.658C188.034 72.32 188.318 71.7024 188.18 70.9425L186.324 71.28L184.468 71.6175C184.419 71.3494 184.45 71.1254 184.49 70.9776C184.529 70.8351 184.579 70.7461 184.596 70.7168C184.625 70.6684 184.608 70.7121 184.46 70.8524L185.76 72.2201ZM186.324 71.28L188.174 70.91C188.017 70.1288 187.493 69.6648 187.204 69.4507C186.879 69.21 186.511 69.0348 186.178 68.9017L185.478 70.6533L184.777 72.4048C184.966 72.4806 185.001 72.5144 184.958 72.4825C184.932 72.4635 184.849 72.3993 184.756 72.2789C184.66 72.1549 184.533 71.9444 184.474 71.65L186.324 71.28ZM185.478 70.6533L186.138 68.886C184.22 68.1699 181.79 67.6337 178.895 67.2478L178.646 69.1177L178.397 70.9877C181.143 71.3538 183.267 71.8413 184.817 72.4205L185.478 70.6533ZM178.646 69.1177L178.889 67.2469L176.476 66.9335L176.233 68.8043L175.99 70.6751L178.403 70.9885L178.646 69.1177ZM176.233 68.8043L176.479 66.934L174.097 66.6206L173.851 68.491L173.605 70.3613L175.987 70.6747L176.233 68.8043ZM173.851 68.491L174.103 66.6214C172.31 66.3796 170.84 66.0736 169.672 65.7158L169.119 67.5195L168.567 69.3232C169.989 69.7592 171.674 70.1009 173.599 70.3605L173.851 68.491ZM169.119 67.5195L169.653 65.7102C166.415 64.7544 164.015 63.3608 162.333 61.607L160.971 62.9128L159.61 64.2187C161.855 66.5596 164.887 68.2372 168.585 69.3288L169.119 67.5195ZM160.971 62.9128L162.323 61.5965C161.357 60.6054 160.98 59.7353 160.916 58.9787C160.853 58.2211 161.08 57.2947 161.869 56.1462L160.313 55.0784L158.758 54.0106C157.625 55.6617 157.001 57.4407 157.156 59.2946C157.312 61.1495 158.225 62.7969 159.62 64.2292L160.971 62.9128ZM160.313 55.0784L161.871 56.143C162.864 54.6893 164.687 52.7551 167.452 50.3207L166.205 48.9049L164.958 47.4891C162.124 49.9851 160.019 52.1667 158.756 54.0138L160.313 55.0784ZM166.205 48.9049L167.461 50.3126C174.253 44.2525 182.217 39.5016 191.373 36.0679L190.711 34.3015L190.049 32.5351C180.486 36.1211 172.112 41.1058 164.949 47.4972L166.205 48.9049ZM190.711 34.3015L191.351 36.0761C193.783 35.1989 195.679 34.8513 197.099 34.902L197.167 33.0167L197.234 31.1314C195.144 31.0567 192.736 31.5656 190.071 32.5269L190.711 34.3015ZM215.955 74.6018L215.184 72.8798L215.137 72.901L215.091 72.9248L215.955 74.6018ZM213.886 74.7272L213.153 76.4651L213.174 76.474L213.195 76.4824L213.886 74.7272ZM210.627 68.9297L208.8 68.4603L208.797 68.4729L208.794 68.4856L210.627 68.9297ZM212.758 63.2576L211.177 62.2294L211.141 62.2842L211.109 62.3414L212.758 63.2576ZM213.228 62.0667L215.103 62.2751L215.614 57.6772L212.034 60.6067L213.228 62.0667ZM212.194 62.9128L211 61.4528L210.985 61.465L210.97 61.4775L212.194 62.9128ZM209.812 65.0438L208.529 63.6614L208.525 63.6647L209.812 65.0438ZM207.462 67.2374L206.175 65.8583L206.172 65.8612L207.462 67.2374ZM202.668 71.4994L201.483 70.0313L201.474 70.0382L202.668 71.4994ZM199.91 75.6046L201.685 76.2436L201.69 76.229L201.695 76.2142L199.91 75.6046ZM199.565 77.3909L197.682 77.2732L197.681 77.2983L197.68 77.3235L199.565 77.3909ZM199.534 78.2683L197.648 78.201L197.646 78.2672L197.648 78.3333L199.534 78.2683ZM199.565 79.1771L201.451 79.1415L201.451 79.1268L201.45 79.1121L199.565 79.1771ZM199.001 81.1827L199.884 82.85L199.915 82.8333L199.946 82.8153L199.001 81.1827ZM197.089 80.9634L196.397 82.7181L196.421 82.7275L196.445 82.7363L197.089 80.9634ZM195.178 79.2398L196.813 78.2994L196.806 78.2875L196.799 78.2756L195.178 79.2398ZM194.52 76.6701L192.634 76.6102L192.634 76.6192L192.634 76.6282L194.52 76.6701ZM195.993 71.6561L197.704 72.45L197.749 72.3535L197.782 72.2526L195.993 71.6561ZM196.024 71.562L194.337 70.7184L194.277 70.8383L194.234 70.9655L196.024 71.562ZM196.181 71.2487L197.868 72.0923L197.92 71.9873L197.96 71.8765L196.181 71.2487ZM196.682 70.0578L198.385 70.8689L198.404 70.8304L198.42 70.7911L196.682 70.0578ZM198.531 65.7959L200.255 66.5621L200.259 66.5529L198.531 65.7959ZM204.673 52.4461L206.371 53.2693L206.374 53.2619L204.673 52.4461ZM218.994 28.41L220.22 29.8444L220.24 29.827L220.26 29.8089L218.994 28.41ZM220.687 27.8773L220.863 25.999L220.832 25.9961L220.801 25.9943L220.687 27.8773ZM222.473 29.3188L224.293 29.8152L224.321 29.7117L224.337 29.6057L222.473 29.3188ZM222.379 29.6635L224.152 30.3083L224.178 30.2351L224.199 30.1599L222.379 29.6635ZM222.254 30.0083L224.005 30.7089L224.016 30.6811L224.026 30.653L222.254 30.0083ZM219.841 34.9596L218.207 34.0169L218.202 34.0246L218.198 34.0323L219.841 34.9596ZM209.436 55.4545L207.725 54.6616L207.721 54.6698L207.717 54.678L209.436 55.4545ZM208.183 57.9615L206.517 57.0773L206.51 57.0889L206.504 57.1006L208.183 57.9615ZM207.556 59.1837L205.878 58.3228L205.873 58.3314L205.869 58.34L207.556 59.1837ZM206.929 60.4372L205.242 59.5935V59.5935L206.929 60.4372ZM206.71 61.2206H204.824V65.2181L207.909 62.6769L206.71 61.2206ZM207.243 60.7819L208.442 62.2381L208.489 62.1996L208.533 62.1581L207.243 60.7819ZM207.744 60.3118L206.469 58.9218L206.461 58.9286L206.454 58.9355L207.744 60.3118ZM213.573 55.8932L214.525 57.5221L214.538 57.5143L214.551 57.5063L213.573 55.8932ZM219.339 56.3006L218.181 57.7897L218.192 57.7982L218.203 57.8066L219.339 56.3006ZM220.53 60.0298L222.357 60.4996L222.36 60.4873L220.53 60.0298ZM219.621 62.4428L221.299 63.3045L221.312 63.2794L221.324 63.2538L219.621 62.4428ZM218.43 64.7618L220.084 65.6697L220.097 65.6468L220.109 65.6235L218.43 64.7618ZM217.553 66.36L215.899 65.4521L215.896 65.4588L215.892 65.4656L217.553 66.36ZM216.675 67.9895L218.328 68.8987L218.332 68.8913L218.336 68.8839L216.675 67.9895ZM215.171 71.3113L216.938 71.9737L216.952 71.9353L216.965 71.8962L215.171 71.3113ZM215.077 71.562L213.311 70.8997L213.284 70.9708L213.263 71.0438L215.077 71.562ZM215.015 71.7814L216.821 72.3235L216.825 72.3116L216.828 72.2997L215.015 71.7814ZM214.983 72.3455L213.153 72.803L213.656 74.8145L215.611 74.1244L214.983 72.3455ZM216.205 71.6561L217.315 73.1817L217.322 73.1763L217.33 73.1709L216.205 71.6561ZM222.943 65.1692L221.538 63.9098L221.53 63.9187L221.523 63.9276L222.943 65.1692ZM223.758 64.2604L225.162 65.5197V65.5197L223.758 64.2604ZM224.573 63.3516L223.239 62.0176L223.202 62.054L223.168 62.0922L224.573 63.3516ZM225.45 63.1949L226.784 61.8609L226.755 61.8319L226.725 61.8042L225.45 63.1949ZM225.513 63.6023L226.691 65.0754L226.84 64.9564L226.962 64.81L225.513 63.6023ZM225.356 63.7276L226.2 65.415L226.378 65.3256L226.534 65.2007L225.356 63.7276ZM225.199 63.853L226.682 65.0192L226.801 64.8683L226.887 64.6966L225.199 63.853ZM218.618 72.1888L217.142 71.0144L217.133 71.0255L218.618 72.1888ZM215.955 74.6018L215.091 72.9248C214.859 73.0443 214.736 73.0341 214.578 72.9719L213.886 74.7272L213.195 76.4824C214.416 76.9634 215.672 76.8696 216.819 76.2789L215.955 74.6018ZM213.886 74.7272L214.62 72.9892C213.451 72.4955 212.874 71.9453 212.601 71.4602C212.344 71.0041 212.221 70.3642 212.461 69.3737L210.627 68.9297L208.794 68.4856C208.386 70.1693 208.482 71.8327 209.312 73.3091C210.126 74.7565 211.502 75.768 213.153 76.4651L213.886 74.7272ZM210.627 68.9297L212.454 69.399C213.013 67.2251 213.672 65.4965 214.407 64.1737L212.758 63.2576L211.109 62.3414C210.173 64.027 209.412 66.0798 208.8 68.4603L210.627 68.9297ZM212.758 63.2576L214.34 64.2857C214.723 63.6963 215.02 63.0211 215.103 62.2751L213.228 62.0667L211.353 61.8584C211.353 61.8644 211.337 61.9831 211.177 62.2294L212.758 63.2576ZM213.228 62.0667L212.034 60.6067L211 61.4528L212.194 62.9128L213.389 64.3729L214.423 63.5268L213.228 62.0667ZM212.194 62.9128L210.97 61.4775C210.235 62.1046 209.421 62.8333 208.529 63.6614L209.812 65.0438L211.096 66.4262C211.959 65.6247 212.733 64.9328 213.418 64.3482L212.194 62.9128ZM209.812 65.0438L208.525 63.6647L206.175 65.8583L207.462 67.2374L208.749 68.6166L211.1 66.4229L209.812 65.0438ZM207.462 67.2374L206.172 65.8612C204.178 67.7303 202.62 69.1139 201.483 70.0313L202.668 71.4994L203.852 72.9674C205.097 71.9628 206.735 70.5051 208.752 68.6137L207.462 67.2374ZM202.668 71.4994L201.474 70.0382C199.916 71.3106 198.809 72.989 198.125 74.995L199.91 75.6046L201.695 76.2142C202.18 74.794 202.912 73.7355 203.861 72.9605L202.668 71.4994ZM199.91 75.6046L198.135 74.9656C197.875 75.6861 197.733 76.4621 197.682 77.2732L199.565 77.3909L201.448 77.5085C201.481 76.9826 201.568 76.5677 201.685 76.2436L199.91 75.6046ZM199.565 77.3909L197.68 77.3235L197.648 78.201L199.534 78.2683L201.419 78.3356L201.45 77.4582L199.565 77.3909ZM199.534 78.2683L197.648 78.3333L197.68 79.2421L199.565 79.1771L201.45 79.1121L201.419 78.2033L199.534 78.2683ZM199.565 79.1771L197.679 79.2127C197.683 79.4348 197.676 79.6116 197.663 79.7485C197.65 79.8876 197.633 79.9659 197.624 79.9982C197.614 80.0328 197.622 79.9856 197.679 79.8987C197.74 79.8046 197.859 79.6641 198.056 79.5501L199.001 81.1827L199.946 82.8153C200.745 82.3531 201.096 81.5886 201.256 81.0197C201.42 80.4345 201.463 79.7839 201.451 79.1415L199.565 79.1771ZM199.001 81.1827L198.118 79.5155C198.28 79.4297 198.411 79.4071 198.465 79.4008C198.518 79.3946 198.526 79.4009 198.472 79.3947C198.355 79.3813 198.119 79.3305 197.734 79.1904L197.089 80.9634L196.445 82.7363C196.979 82.9305 197.521 83.0834 198.042 83.1431C198.532 83.1993 199.223 83.1997 199.884 82.85L199.001 81.1827ZM197.089 80.9634L197.782 79.2086C197.437 79.0723 197.11 78.8153 196.813 78.2994L195.178 79.2398L193.542 80.1801C194.207 81.3356 195.154 82.2277 196.397 82.7181L197.089 80.9634ZM195.178 79.2398L196.799 78.2756C196.529 77.8208 196.392 77.3155 196.406 76.712L194.52 76.6701L192.634 76.6282C192.605 77.9049 192.907 79.1128 193.556 80.2039L195.178 79.2398ZM194.52 76.6701L196.405 76.7299C196.435 75.7853 196.806 74.3844 197.704 72.45L195.993 71.6561L194.281 70.8622C193.298 72.9807 192.688 74.9225 192.634 76.6102L194.52 76.6701ZM195.993 71.6561L197.782 72.2526L197.814 72.1586L196.024 71.562L194.234 70.9655L194.203 71.0595L195.993 71.6561ZM196.024 71.562L197.711 72.4057C197.753 72.3221 197.805 72.2177 197.868 72.0923L196.181 71.2487L194.493 70.405C194.431 70.5304 194.378 70.6348 194.337 70.7184L196.024 71.562ZM196.181 71.2487L197.96 71.8765C198.058 71.5986 198.197 71.2641 198.385 70.8689L196.682 70.0578L194.979 69.2468C194.749 69.7291 194.554 70.1885 194.402 70.6208L196.181 71.2487ZM196.682 70.0578L198.42 70.7911C198.979 69.4664 199.591 68.0568 200.255 66.5621L198.531 65.7959L196.807 65.0297C196.134 66.5434 195.513 67.9751 194.944 69.3246L196.682 70.0578ZM198.531 65.7959L200.259 66.5529C202.318 61.8512 204.356 57.4235 206.371 53.2693L204.673 52.4461L202.976 51.6228C200.938 55.8253 198.88 60.2975 196.803 65.039L198.531 65.7959ZM204.673 52.4461L206.374 53.2619C209.558 46.6227 212.323 41.3437 214.669 37.4059C217.049 33.4119 218.898 30.9738 220.22 29.8444L218.994 28.41L217.769 26.9757C215.936 28.5414 213.821 31.4568 211.427 35.4747C209 39.549 206.181 44.9404 202.972 51.6302L204.673 52.4461ZM218.994 28.41L220.26 29.8089C220.278 29.7927 220.29 29.7857 220.313 29.7786C220.342 29.7696 220.42 29.7511 220.573 29.7603L220.687 27.8773L220.801 25.9943C219.697 25.9273 218.607 26.2167 217.729 27.0111L218.994 28.41ZM220.687 27.8773L220.511 29.7556C220.668 29.7703 220.753 29.8007 220.791 29.8184C220.825 29.8337 220.839 29.8464 220.851 29.8601L222.254 28.5981L223.656 27.3361C222.903 26.4998 221.906 26.0968 220.863 25.999L220.687 27.8773ZM222.254 28.5981L220.851 29.8601C220.783 29.7839 220.698 29.6582 220.645 29.4842C220.591 29.3089 220.59 29.1491 220.608 29.032L222.473 29.3188L224.337 29.6057C224.468 28.7599 224.212 27.9546 223.656 27.3361L222.254 28.5981ZM222.473 29.3188L220.653 28.8225L220.559 29.1672L222.379 29.6635L224.199 30.1599L224.293 29.8152L222.473 29.3188ZM222.379 29.6635L220.606 29.0188L220.481 29.3636L222.254 30.0083L224.026 30.653L224.152 30.3083L222.379 29.6635ZM222.254 30.0083L220.502 29.3076C219.868 30.8919 219.104 32.4616 218.207 34.0169L219.841 34.9596L221.475 35.9023C222.458 34.1985 223.302 32.4673 224.005 30.7089L222.254 30.0083ZM219.841 34.9596L218.198 34.0323C214.784 40.0806 211.293 46.9584 207.725 54.6616L209.436 55.4545L211.148 56.2474C214.683 48.616 218.129 41.8305 221.483 35.8869L219.841 34.9596ZM209.436 55.4545L207.717 54.678C207.448 55.2738 207.051 56.0699 206.517 57.0773L208.183 57.9615L209.849 58.8457C210.401 57.8057 210.84 56.9305 211.156 56.2309L209.436 55.4545ZM208.183 57.9615L206.504 57.1006L205.878 58.3228L207.556 59.1837L209.235 60.0445L209.862 58.8223L208.183 57.9615ZM207.556 59.1837L205.869 58.34L205.242 59.5935L206.929 60.4372L208.617 61.2808L209.244 60.0273L207.556 59.1837ZM206.929 60.4372L205.242 59.5935C205.017 60.0445 204.824 60.6008 204.824 61.2206H206.71H208.597C208.597 61.3053 208.583 61.3549 208.582 61.361C208.58 61.3667 208.587 61.3409 208.617 61.2808L206.929 60.4372ZM206.71 61.2206L207.909 62.6769L208.442 62.2381L207.243 60.7819L206.044 59.3256L205.511 59.7644L206.71 61.2206ZM207.243 60.7819L208.533 62.1581L209.034 61.6881L207.744 60.3118L206.454 58.9355L205.953 59.4056L207.243 60.7819ZM207.744 60.3118L209.02 61.7019C210.973 59.9097 212.808 58.5249 214.525 57.5221L213.573 55.8932L212.621 54.2643C210.619 55.4342 208.569 56.9952 206.469 58.9218L207.744 60.3118ZM213.573 55.8932L214.551 57.5063C215.265 57.0735 215.853 56.9483 216.354 56.9837C216.863 57.0196 217.466 57.2336 218.181 57.7897L219.339 56.3006L220.497 54.8115C219.332 53.9052 218.034 53.32 216.62 53.2201C215.2 53.1198 213.845 53.5221 212.595 54.2801L213.573 55.8932ZM219.339 56.3006L218.203 57.8066C218.533 58.0557 218.67 58.2821 218.733 58.4805C218.801 58.6926 218.835 59.0326 218.7 59.5722L220.53 60.0298L222.36 60.4873C222.622 59.4391 222.656 58.3637 222.327 57.3328C221.993 56.2881 221.336 55.4438 220.475 54.7946L219.339 56.3006ZM220.53 60.0298L218.703 59.56C218.552 60.1459 218.298 60.8343 217.918 61.6317L219.621 62.4428L221.324 63.2538C221.78 62.2963 222.132 61.3761 222.357 60.4996L220.53 60.0298ZM219.621 62.4428L217.943 61.581L217.348 62.7405L219.026 63.6023L220.704 64.464L221.299 63.3045L219.621 62.4428ZM219.026 63.6023L217.348 62.7405L216.752 63.9L218.43 64.7618L220.109 65.6235L220.704 64.464L219.026 63.6023ZM218.43 64.7618L216.777 63.8539L215.899 65.4521L217.553 66.36L219.207 67.2679L220.084 65.6697L218.43 64.7618ZM217.553 66.36L215.892 65.4656L215.014 67.0952L216.675 67.9895L218.336 68.8839L219.214 67.2544L217.553 66.36ZM216.675 67.9895L215.022 67.0804C214.298 68.3985 213.739 69.6177 213.378 70.7265L215.171 71.3113L216.965 71.8962C217.23 71.0829 217.675 70.0876 218.328 68.8987L216.675 67.9895ZM215.171 71.3113L213.405 70.649L213.311 70.8997L215.077 71.562L216.844 72.2244L216.938 71.9737L215.171 71.3113ZM215.077 71.562L213.263 71.0438L213.201 71.2631L215.015 71.7814L216.828 72.2997L216.891 72.0803L215.077 71.562ZM215.015 71.7814L213.208 71.2393C213.073 71.688 213.01 72.2298 213.153 72.803L214.983 72.3455L216.813 71.8879C216.873 72.1269 216.831 72.2927 216.821 72.3235L215.015 71.7814ZM214.983 72.3455L215.611 74.1244C216.202 73.9159 216.775 73.5746 217.315 73.1817L216.205 71.6561L215.096 70.1304C214.717 70.4061 214.475 70.5244 214.355 70.5665L214.983 72.3455ZM216.205 71.6561L217.33 73.1709C219.503 71.5579 221.848 69.2887 224.363 66.4107L222.943 65.1692L221.523 63.9276C219.108 66.6904 216.961 68.7458 215.081 70.1413L216.205 71.6561ZM222.943 65.1692L224.348 66.4285L225.162 65.5197L223.758 64.2604L222.353 63.001L221.538 63.9098L222.943 65.1692ZM223.758 64.2604L225.162 65.5197L225.977 64.6109L224.573 63.3516L223.168 62.0922L222.353 63.001L223.758 64.2604ZM224.573 63.3516L225.907 64.6855C225.949 64.6427 225.772 64.8478 225.374 64.9188C225.153 64.9582 224.908 64.947 224.668 64.8685C224.436 64.7928 224.274 64.6757 224.175 64.5855L225.45 63.1949L226.725 61.8042C226.237 61.3573 225.525 61.0592 224.711 61.2046C224.021 61.3279 223.53 61.7261 223.239 62.0176L224.573 63.3516ZM225.45 63.1949L224.116 64.5288C224.041 64.454 223.785 64.1769 223.711 63.6933C223.623 63.1256 223.841 62.662 224.063 62.3946L225.513 63.6023L226.962 64.81C227.289 64.4171 227.548 63.823 227.44 63.1196C227.345 62.5001 227.005 62.082 226.784 61.8609L225.45 63.1949ZM225.513 63.6023L224.334 62.1292L224.178 62.2545L225.356 63.7276L226.534 65.2007L226.691 65.0754L225.513 63.6023ZM225.356 63.7276L224.512 62.0403C224.369 62.1119 223.825 62.3841 223.512 63.0093L225.199 63.853L226.887 64.6966C226.734 65.0017 226.534 65.182 226.433 65.2634C226.323 65.3509 226.234 65.3979 226.2 65.415L225.356 63.7276ZM225.199 63.853L223.716 62.6867C220.792 66.4049 218.601 69.1802 217.142 71.0144L218.618 72.1888L220.095 73.3632C221.561 71.5205 223.757 68.7386 226.682 65.0192L225.199 63.853ZM218.618 72.1888L217.133 71.0255C216.208 72.207 215.552 72.7154 215.184 72.8798L215.955 74.6018L216.725 76.3238C217.945 75.7779 219.065 74.6776 220.104 73.3521L218.618 72.1888ZM231.463 74.1317L232.589 75.645L232.596 75.6399L231.463 74.1317ZM225.509 74.2571L226.514 72.6609L226.508 72.657L226.502 72.6531L225.509 74.2571ZM223.378 72.1575L224.971 71.1471L224.965 71.1373L223.378 72.1575ZM222.563 69.5251L224.449 69.57L224.45 69.5476V69.5251H222.563ZM222.563 68.7417H224.45V68.6978L224.447 68.654L222.563 68.7417ZM224.537 63.1949L223.038 62.0504L223.028 62.0633L223.018 62.0764L224.537 63.1949ZM229.583 58.4942L230.683 60.0263L230.703 60.012L230.723 59.9972L229.583 58.4942ZM230.491 57.8048L231.632 59.3078V59.3078L230.491 57.8048ZM231.4 57.1154L232.54 58.6183L232.554 58.6081L232.567 58.5977L231.4 57.1154ZM237.354 55.7365L236.792 57.5371L236.8 57.5399L236.809 57.5425L237.354 55.7365ZM240.049 57.7108L241.604 56.642L241.599 56.6344L241.593 56.6267L240.049 57.7108ZM241.021 60.9699L242.905 61.0556L242.906 61.0464L242.906 61.0372L241.021 60.9699ZM241.115 61.722L242.449 60.3881L242.232 60.1716L241.959 60.0347L241.115 61.722ZM241.93 61.6593L242.33 63.5028L242.344 63.4997L242.358 63.4965L241.93 61.6593ZM244.029 60.8132L244.926 62.4728L244.94 62.4652L244.954 62.4574L244.029 60.8132ZM246.035 59.6851L245.229 57.9792L245.169 58.0079L245.11 58.0408L246.035 59.6851ZM247.978 59.6224L247.035 61.2564L247.056 61.2687L247.078 61.2803L247.978 59.6224ZM248.229 61.1579L246.826 59.8959L246.823 59.8995L248.229 61.1579ZM241.46 64.5424L241.165 62.6791L241.157 62.6803L241.15 62.6816L241.46 64.5424ZM239.423 65.9526L241.027 66.9447L241.032 66.9371L241.037 66.9294L239.423 65.9526ZM233.625 61.3773L235.134 62.5092L235.145 62.4956L235.155 62.4818L233.625 61.3773ZM233.845 62.0667L233.277 63.8657L233.331 63.883L233.387 63.8969L233.845 62.0667ZM235.788 62.2861L235.698 64.1705L235.975 64.1837L236.245 64.1163L235.788 62.2861ZM236.132 62.2861L235.865 64.1536L235.998 64.1726H236.132V62.2861ZM236.32 62.2861L236.63 60.4253L236.476 60.3996H236.32V62.2861ZM236.508 62.3174L236.198 64.1783L236.29 64.1936L236.383 64.1997L236.508 62.3174ZM237.135 62.0041L238.852 62.7847L238.878 62.7292L238.899 62.6723L237.135 62.0041ZM237.636 58.1495L239.5 57.8553L239.494 57.8173L239.486 57.7795L237.636 58.1495ZM237.605 57.9928L239.455 57.6228L239.446 57.5788L239.435 57.5353L237.605 57.9928ZM237.574 57.8675L239.404 57.4099L239.336 57.1376L239.191 56.8969L237.574 57.8675ZM237.292 57.6794L237.602 55.8186L237.448 55.7929H237.292V57.6794ZM236.038 58.1495L236.86 59.8477L236.871 59.8423L236.882 59.8368L236.038 58.1495ZM235.035 58.8703L236.889 59.2233L236.9 59.1641L236.907 59.1043L235.035 58.8703ZM234.471 60.2178L235.99 61.3369L236.028 61.285L236.063 61.2306L234.471 60.2178ZM234.033 60.8132L232.514 59.6941L232.509 59.7014L232.503 59.7087L234.033 60.8132ZM228.549 69.7758L226.718 69.3183L226.712 69.3423L226.707 69.3666L228.549 69.7758ZM228.486 70.0578L226.644 69.6486L226.633 69.6979L226.625 69.7477L228.486 70.0578ZM228.486 70.7159L226.644 71.1252L227.173 73.5051L229.344 72.3958L228.486 70.7159ZM235.6 64.8244L237.1 65.9685L238.859 63.6613L236.036 62.9892L235.6 64.8244ZM232.434 63.6023L231.388 65.1719L231.407 65.1849L231.427 65.1973L232.434 63.6023ZM231.808 63.7276L233.29 64.8944L233.336 64.8359L233.377 64.7741L231.808 63.7276ZM228.611 69.5251L230.441 69.9826L230.448 69.9573L230.453 69.9318L228.611 69.5251ZM231.463 74.1317L230.336 72.6185C229.653 73.1276 229.058 73.3156 228.524 73.3268C227.982 73.3382 227.323 73.1703 226.514 72.6609L225.509 74.2571L224.503 75.8532C225.784 76.6601 227.161 77.1293 228.604 77.099C230.056 77.0684 231.393 76.5356 232.589 75.645L231.463 74.1317ZM225.509 74.2571L226.502 72.6531C225.862 72.2572 225.359 71.7587 224.971 71.1472L223.378 72.1575L221.785 73.1678C222.483 74.2693 223.4 75.1706 224.516 75.8611L225.509 74.2571ZM223.378 72.1575L224.965 71.1373C224.565 70.5161 224.439 70.0041 224.449 69.57L222.563 69.5251L220.677 69.4802C220.646 70.801 221.062 72.0439 221.791 73.1776L223.378 72.1575ZM222.563 69.5251H224.45V68.7417H222.563H220.677V69.5251H222.563ZM222.563 68.7417L224.447 68.654C224.39 67.4083 224.832 65.976 226.056 64.3134L224.537 63.1949L223.018 62.0764C221.443 64.2161 220.569 66.4816 220.679 68.8293L222.563 68.7417ZM224.537 63.1949L226.037 64.3394C227.106 62.9391 228.637 61.4967 230.683 60.0263L229.583 58.4942L228.482 56.9621C226.225 58.5837 224.392 60.2751 223.038 62.0504L224.537 63.1949ZM229.583 58.4942L230.723 59.9972L231.632 59.3078L230.491 57.8048L229.351 56.3018L228.442 56.9913L229.583 58.4942ZM230.491 57.8048L231.632 59.3078L232.54 58.6183L231.4 57.1154L230.26 55.6124L229.351 56.3018L230.491 57.8048ZM231.4 57.1154L232.567 58.5977C234.148 57.3529 235.498 57.1329 236.792 57.5371L237.354 55.7365L237.917 53.9359C235.2 53.0866 232.58 53.7858 230.233 55.6331L231.4 57.1154ZM237.354 55.7365L236.809 57.5425C237.496 57.7499 238.049 58.1447 238.506 58.7948L240.049 57.7108L241.593 56.6267C240.671 55.3131 239.427 54.3917 237.9 53.9305L237.354 55.7365ZM240.049 57.7108L238.495 58.7795C238.965 59.463 239.162 60.1538 239.136 60.9026L241.021 60.9699L242.906 61.0372C242.963 59.4462 242.513 57.9642 241.604 56.642L240.049 57.7108ZM241.021 60.9699L239.136 60.8842C239.124 61.1493 239.121 61.4523 239.157 61.7366C239.174 61.8733 239.21 62.0972 239.306 62.3413C239.383 62.5373 239.629 63.0883 240.271 63.4094L241.115 61.722L241.959 60.0347C242.269 60.1898 242.473 60.401 242.595 60.5646C242.716 60.7253 242.783 60.8716 242.818 60.9617C242.885 61.1327 242.899 61.2574 242.901 61.2687C242.905 61.3023 242.897 61.2502 242.905 61.0556L241.021 60.9699ZM241.115 61.722L239.781 63.056C240.262 63.5366 240.832 63.6084 240.967 63.6253C241.187 63.6528 241.383 63.6441 241.51 63.6343C241.775 63.614 242.061 63.5613 242.33 63.5028L241.93 61.6593L241.529 59.8159C241.431 59.8372 241.355 59.8518 241.298 59.8612C241.239 59.871 241.216 59.8727 241.221 59.8724C241.224 59.8722 241.243 59.8708 241.274 59.8708C241.302 59.8708 241.359 59.8719 241.435 59.8814C241.506 59.8903 241.635 59.9114 241.793 59.9687C241.945 60.0241 242.203 60.1417 242.449 60.3881L241.115 61.722ZM241.93 61.6593L242.358 63.4965C243.196 63.3011 244.056 62.9435 244.926 62.4728L244.029 60.8132L243.132 59.1536C242.457 59.5186 241.917 59.7251 241.501 59.8222L241.93 61.6593ZM244.029 60.8132L244.954 62.4574L245.957 61.8934L245.032 60.2491L244.107 58.6049L243.104 59.169L244.029 60.8132ZM245.032 60.2491L245.957 61.8934L246.96 61.3293L246.035 59.6851L245.11 58.0408L244.107 58.6049L245.032 60.2491ZM246.035 59.6851L246.84 61.3909C247.047 61.2935 247.142 61.2887 247.146 61.2885C247.146 61.2885 247.142 61.2887 247.133 61.2878C247.125 61.287 247.114 61.2852 247.101 61.2821C247.073 61.2752 247.05 61.265 247.035 61.2564L247.978 59.6224L248.921 57.9883C247.674 57.2692 246.34 57.4549 245.229 57.9792L246.035 59.6851ZM247.978 59.6224L247.078 61.2803C247.241 61.369 246.824 61.2041 246.727 60.608C246.632 60.0235 246.963 59.7443 246.826 59.8959L248.229 61.1579L249.631 62.4199C250.058 61.9448 250.63 61.0963 250.451 60C250.27 58.892 249.446 58.2727 248.878 57.9644L247.978 59.6224ZM248.229 61.1579L246.823 59.8995C245.563 61.3064 243.737 62.272 241.165 62.6791L241.46 64.5424L241.755 66.4057C244.99 65.8936 247.676 64.6028 249.634 62.4163L248.229 61.1579ZM241.46 64.5424L241.15 62.6816C239.703 62.9226 238.56 63.7344 237.809 64.9758L239.423 65.9526L241.037 66.9294C241.246 66.583 241.461 66.4547 241.77 66.4032L241.46 64.5424ZM239.423 65.9526L237.818 64.9605C236.289 67.4342 233.826 69.9959 230.33 72.6236L231.463 74.1317L232.596 75.6399C236.328 72.8357 239.172 69.9447 241.027 66.9447L239.423 65.9526ZM233.625 61.3773L232.116 60.2454C231.888 60.5494 231.371 61.3565 231.694 62.3723C232.019 63.3923 232.912 63.7505 233.277 63.8657L233.845 62.0667L234.413 60.2678C234.441 60.2766 234.577 60.3212 234.745 60.448C234.927 60.5859 235.166 60.8382 235.29 61.2284C235.414 61.6178 235.365 61.9597 235.297 62.1749C235.235 62.373 235.151 62.4869 235.134 62.5092L233.625 61.3773ZM233.845 62.0667L233.387 63.8969C233.994 64.0487 234.796 64.1275 235.698 64.1705L235.788 62.2861L235.877 60.4017C235.024 60.3611 234.531 60.2937 234.302 60.2365L233.845 62.0667ZM235.788 62.2861L236.245 64.1163C236.097 64.1533 235.985 64.1569 235.936 64.1569C235.884 64.1569 235.857 64.1524 235.865 64.1536L236.132 62.2861L236.399 60.4185C236.159 60.3843 235.762 60.348 235.33 60.4559L235.788 62.2861ZM236.132 62.2861V64.1726H236.32V62.2861V60.3996H236.132V62.2861ZM236.32 62.2861L236.01 64.1469L236.198 64.1783L236.508 62.3174L236.818 60.4566L236.63 60.4253L236.32 62.2861ZM236.508 62.3174L236.383 64.1997C236.763 64.2251 237.253 64.1874 237.744 63.9421C238.267 63.6805 238.637 63.259 238.852 62.7847L237.135 62.0041L235.418 61.2234C235.529 60.979 235.742 60.7245 236.056 60.5674C236.338 60.4266 236.567 60.4307 236.634 60.4351L236.508 62.3174ZM237.135 62.0041L238.899 62.6723C239.512 61.0547 239.749 59.4351 239.5 57.8553L237.636 58.1495L235.773 58.4437C235.9 59.2456 235.803 60.1957 235.371 61.3358L237.135 62.0041ZM237.636 58.1495L239.486 57.7795L239.455 57.6228L237.605 57.9928L235.755 58.3628L235.787 58.5195L237.636 58.1495ZM237.605 57.9928L239.435 57.5353L239.404 57.4099L237.574 57.8675L235.744 58.325L235.775 58.4504L237.605 57.9928ZM237.574 57.8675L239.191 56.8969C238.831 56.2955 238.245 55.9259 237.602 55.8186L237.292 57.6794L236.982 59.5403C236.814 59.5123 236.611 59.4459 236.41 59.3118C236.207 59.1763 236.057 59.0063 235.956 58.8381L237.574 57.8675ZM237.292 57.6794V55.7929C236.824 55.7929 236.395 55.9423 236.159 56.0306C235.864 56.1412 235.538 56.2906 235.195 56.4622L236.038 58.1495L236.882 59.8368C237.165 59.6951 237.361 59.6094 237.484 59.5633C237.545 59.5406 237.565 59.5361 237.553 59.539C237.546 59.5408 237.522 59.5466 237.483 59.5524C237.446 59.558 237.38 59.5659 237.292 59.5659V57.6794ZM236.038 58.1495L235.217 56.4514C234.856 56.6259 234.498 56.8194 234.201 57.0329C234.054 57.1385 233.863 57.2901 233.688 57.4915C233.533 57.6691 233.236 58.0589 233.163 58.6363L235.035 58.8703L236.907 59.1043C236.875 59.3623 236.792 59.5623 236.721 59.6944C236.651 59.826 236.578 59.918 236.532 59.9709C236.445 60.0705 236.383 60.1111 236.403 60.0966C236.44 60.0698 236.573 59.9865 236.86 59.8477L236.038 58.1495ZM235.035 58.8703L233.182 58.5173C233.152 58.6762 233.071 58.9038 232.88 59.205L234.471 60.2178L236.063 61.2306C236.456 60.6126 236.752 59.9419 236.889 59.2233L235.035 58.8703ZM234.471 60.2178L232.953 59.0987L232.514 59.6941L234.033 60.8132L235.551 61.9323L235.99 61.3369L234.471 60.2178ZM234.033 60.8132L232.503 59.7087L232.096 60.2728L233.625 61.3773L235.155 62.4818L235.562 61.9177L234.033 60.8132ZM228.549 69.7758L226.707 69.3666L226.644 69.6486L228.486 70.0578L230.327 70.4671L230.39 70.185L228.549 69.7758ZM228.486 70.0578L226.625 69.7477C226.555 70.1649 226.536 70.6385 226.644 71.1252L228.486 70.7159L230.327 70.3067C230.34 70.3641 230.341 70.401 230.341 70.4104C230.341 70.4194 230.34 70.4065 230.347 70.368L228.486 70.0578ZM228.486 70.7159L229.344 72.3958C232.448 70.8099 235.042 68.6664 237.1 65.9685L235.6 64.8244L234.1 63.6804C232.397 65.9129 230.248 67.6971 227.627 69.036L228.486 70.7159ZM235.6 64.8244L236.036 62.9892C234.841 62.7046 234.001 62.3605 233.442 62.0073L232.434 63.6023L231.427 65.1973C232.455 65.8468 233.726 66.3175 235.163 66.6596L235.6 64.8244ZM232.434 63.6023L233.481 62.0326C233.114 61.7877 232.488 61.5048 231.72 61.6584C230.952 61.812 230.483 62.3139 230.238 62.6812L231.808 63.7276L233.377 64.7741C233.3 64.8907 233.019 65.2463 232.46 65.3581C231.9 65.47 231.505 65.2497 231.388 65.1719L232.434 63.6023ZM231.808 63.7276L230.325 62.5609C228.486 64.898 227.215 67.0979 226.769 69.1184L228.611 69.5251L230.453 69.9318C230.718 68.735 231.578 67.0699 233.29 64.8944L231.808 63.7276ZM228.611 69.5251L226.781 69.0676L226.718 69.3183L228.549 69.7758L230.379 70.2333L230.441 69.9826L228.611 69.5251ZM252.592 72.1261L254.478 72.086L254.478 72.0851L252.592 72.1261ZM252.937 67.8642L251.07 67.5974L251.068 67.6061L251.067 67.6149L252.937 67.8642ZM253.062 66.9241L254.934 67.1581L255.426 63.222L252.063 65.3243L253.062 66.9241ZM252.624 67.3315L251.115 66.1996L251.044 66.2935L250.986 66.3955L252.624 67.3315ZM252.498 67.5508L254.136 68.4868L254.136 68.4868L252.498 67.5508ZM252.373 67.7702L253.943 68.8166L253.979 68.7626L254.011 68.7062L252.373 67.7702ZM251.433 69.1804L249.863 68.1339L249.855 68.1461L249.847 68.1585L251.433 69.1804ZM250.524 70.5906L252.098 71.6302L252.104 71.6214L252.11 71.6125L250.524 70.5906ZM248.55 73.3483L250.004 74.5505L250.013 74.5387L250.023 74.5268L248.55 73.3483ZM245.917 75.1032L246.052 76.9849L246.076 76.9832L246.101 76.9808L245.917 75.1032ZM243.003 73.787L241.748 75.1958L241.755 75.2016L243.003 73.787ZM241.875 69.6818L243.639 70.3494L243.642 70.343L241.875 69.6818ZM245.322 60.9699L243.595 60.211L243.591 60.2207L243.587 60.2304L245.322 60.9699ZM248.769 55.9872L247.381 54.7099L247.363 54.7288L247.347 54.7482L248.769 55.9872ZM250.555 55.6112L249.882 57.3733L249.886 57.375L250.555 55.6112ZM252.028 59.1837L253.712 60.0348L253.716 60.0269L253.72 60.019L252.028 59.1837ZM248.08 68.0836L249.831 68.7842L249.851 68.7352L249.868 68.6853L248.08 68.0836ZM247.923 68.5223L246.093 68.0648L244.494 74.461L249.234 69.8787L247.923 68.5223ZM249.929 66.172L251.446 67.2933L251.451 67.2863L251.456 67.2793L249.929 66.172ZM250.837 64.9185L249.31 63.8111V63.8111L250.837 64.9185ZM251.746 63.6649L250.221 62.5554L250.219 62.5576L251.746 63.6649ZM254.065 60.5939L255.529 61.7835L255.538 61.7732L255.546 61.7628L254.065 60.5939ZM255.005 59.9044L255.375 61.7543L255.403 61.7488L255.43 61.7426L255.005 59.9044ZM256.134 60.1238L256.911 58.4048L256.898 58.3992L256.886 58.3937L256.134 60.1238ZM258.139 63.6649L260.013 63.8792L260.014 63.8758L258.139 63.6649ZM257.606 66.7987L255.757 66.4287L255.753 66.4466L255.75 66.4645L257.606 66.7987ZM257.324 68.3656L255.468 68.0314L255.467 68.034L257.324 68.3656ZM257.074 69.9638L255.203 69.7198L255.202 69.7298L257.074 69.9638ZM256.98 70.7473L255.105 70.5389L254.841 72.9158L257.214 72.6192L256.98 70.7473ZM257.356 70.4966L258.994 71.4325L259.02 71.3871L259.043 71.3402L257.356 70.4966ZM257.45 70.3085L255.762 69.4649V69.4649L257.45 70.3085ZM257.544 70.1205L255.871 69.2491L255.863 69.2629L255.856 69.2768L257.544 70.1205ZM258.327 68.6163L256.676 67.7031L256.665 67.7239L256.654 67.7449L258.327 68.6163ZM259.142 67.1434L260.793 68.0566L260.809 68.0278L260.824 67.9985L259.142 67.1434ZM260.74 64.1664L262.37 65.1169L262.378 65.1024L262.386 65.0878L260.74 64.1664ZM269.327 54.389L270.529 55.8427L270.54 55.8336L270.551 55.8243L269.327 54.389ZM270.392 53.4802L269.214 52.0071L269.191 52.0256L269.168 52.0449L270.392 53.4802ZM271.489 52.6027L272.667 54.0759V54.0759L271.489 52.6027ZM273.808 51.0672L273.022 49.3522L272.993 49.3656L272.964 49.3799L273.808 51.0672ZM275.187 51.2552L276.429 49.8355L276.419 49.8266L276.409 49.8178L275.187 51.2552ZM275.218 52.1327L273.931 50.7535L273.916 50.7671L273.902 50.7811L275.218 52.1327ZM263.216 68.679L264.927 69.4734L264.937 69.4525L264.946 69.4314L263.216 68.679ZM262.182 70.7473L260.512 69.8686L260.508 69.876L260.505 69.8833L262.182 70.7473ZM261.649 71.7814L263.293 72.7063L263.31 72.6761L263.326 72.6453L261.649 71.7814ZM261.085 72.7842L259.441 71.8593L259.423 71.8906L259.407 71.9225L261.085 72.7842ZM259.675 74.7898L261.009 76.1238L261.021 76.1112L261.034 76.0984L259.675 74.7898ZM257.92 76.1687L257.139 74.4513L257.097 74.4704L257.056 74.4916L257.92 76.1687ZM255.695 76.2627L255.007 78.0192L255.025 78.0262L255.043 78.0329L255.695 76.2627ZM252.592 72.1261L254.478 72.0851C254.461 71.2745 254.559 69.9712 254.807 68.1135L252.937 67.8642L251.067 67.6149C250.813 69.5177 250.682 71.0557 250.706 72.1671L252.592 72.1261ZM252.937 67.8642L254.805 68.131C254.848 67.8262 254.891 67.5018 254.934 67.1581L253.062 66.9241L251.191 66.6901C251.15 67.0149 251.11 67.3172 251.07 67.5974L252.937 67.8642ZM253.062 66.9241L252.063 65.3243C251.687 65.5593 251.371 65.8577 251.115 66.1996L252.624 67.3315L254.133 68.4634C254.131 68.4657 254.124 68.4745 254.111 68.4867C254.098 68.499 254.081 68.512 254.062 68.5238L253.062 66.9241ZM252.624 67.3315L250.986 66.3955L250.86 66.6149L252.498 67.5508L254.136 68.4868L254.262 68.2674L252.624 67.3315ZM252.498 67.5508L250.86 66.6149L250.735 66.8342L252.373 67.7702L254.011 68.7062L254.136 68.4868L252.498 67.5508ZM252.373 67.7702L250.803 66.7237L249.863 68.1339L251.433 69.1804L253.003 70.2268L253.943 68.8166L252.373 67.7702ZM251.433 69.1804L249.847 68.1585L248.938 69.5687L250.524 70.5906L252.11 71.6125L253.019 70.2023L251.433 69.1804ZM250.524 70.5906L248.95 69.551C248.238 70.6284 247.615 71.4975 247.077 72.1698L248.55 73.3483L250.023 74.5268C250.655 73.7367 251.347 72.7673 252.098 71.6302L250.524 70.5906ZM248.55 73.3483L247.096 72.1461C246.322 73.0816 245.858 73.2135 245.734 73.2256L245.917 75.1032L246.101 76.9808C247.69 76.8258 248.981 75.7877 250.004 74.5505L248.55 73.3483ZM245.917 75.1032L245.783 73.2215C245.646 73.2313 245.162 73.1757 244.251 72.3725L243.003 73.787L241.755 75.2016C242.975 76.2786 244.434 77.1005 246.052 76.9849L245.917 75.1032ZM243.003 73.787L244.258 72.3783C243.79 71.9619 243.606 71.6194 243.537 71.3677C243.472 71.1295 243.464 70.8125 243.639 70.3494L241.875 69.6818L240.11 69.0142C239.701 70.0971 239.589 71.2373 239.899 72.3675C240.206 73.4842 240.879 74.4213 241.748 75.1958L243.003 73.787ZM241.875 69.6818L243.642 70.343C244.91 66.9546 246.048 64.0783 247.058 61.7094L245.322 60.9699L243.587 60.2304C242.548 62.6666 241.389 65.5982 240.108 69.0206L241.875 69.6818ZM245.322 60.9699L247.049 61.7288C247.543 60.6053 248.549 59.1121 250.192 57.2262L248.769 55.9872L247.347 54.7482C245.605 56.7482 244.313 58.5768 243.595 60.211L245.322 60.9699ZM248.769 55.9872L250.158 57.2645C250.172 57.2492 250.162 57.2633 250.124 57.2862C250.084 57.3104 250.029 57.3341 249.965 57.3475C249.828 57.3762 249.781 57.3347 249.882 57.3732L250.555 55.6112L251.229 53.8491C250.62 53.6161 249.919 53.5014 249.187 53.6554C248.444 53.8119 247.841 54.2094 247.381 54.7099L248.769 55.9872ZM250.555 55.6112L249.886 57.375C250.555 57.6286 250.578 57.8261 250.543 57.7404C250.5 57.6376 250.628 57.7583 250.337 58.3484L252.028 59.1837L253.72 60.019C254.264 58.9168 254.564 57.596 254.031 56.3023C253.505 55.0257 252.374 54.2831 251.224 53.8473L250.555 55.6112ZM252.028 59.1837L250.345 58.3325C248.431 62.1188 247.066 65.1804 246.292 67.4818L248.08 68.0836L249.868 68.6853C250.556 66.6413 251.824 63.7696 253.712 60.0348L252.028 59.1837ZM248.08 68.0836L246.328 67.3829C246.248 67.5843 246.149 67.8409 246.093 68.0648L247.923 68.5223L249.753 68.9798C249.746 69.0092 249.741 69.0244 249.742 69.0199C249.743 69.017 249.747 69.0058 249.754 68.9844C249.77 68.9409 249.795 68.8755 249.831 68.7842L248.08 68.0836ZM247.923 68.5223L249.234 69.8787C249.958 69.1793 250.694 68.3098 251.446 67.2933L249.929 66.172L248.412 65.0506C247.742 65.9562 247.142 66.6536 246.612 67.1659L247.923 68.5223ZM249.929 66.172L251.456 67.2793L252.365 66.0258L250.837 64.9185L249.31 63.8111L248.401 65.0647L249.929 66.172ZM250.837 64.9185L252.365 66.0258L253.274 64.7723L251.746 63.6649L250.219 62.5576L249.31 63.8111L250.837 64.9185ZM251.746 63.6649L253.272 64.7745C254.27 63.402 255.019 62.4115 255.529 61.7835L254.065 60.5939L252.601 59.4042C252.025 60.1133 251.228 61.1701 250.221 62.5554L251.746 63.6649ZM254.065 60.5939L255.546 61.7628C255.627 61.66 255.665 61.6346 255.651 61.6451C255.633 61.6583 255.54 61.7214 255.375 61.7543L255.005 59.9044L254.635 58.0546C253.69 58.2437 253.023 58.8699 252.585 59.4249L254.065 60.5939ZM255.005 59.9044L255.43 61.7426C255.327 61.7663 255.246 61.7699 255.198 61.7691C255.151 61.7684 255.127 61.7632 255.131 61.7641C255.135 61.7649 255.158 61.7698 255.203 61.7844C255.247 61.799 255.306 61.8211 255.381 61.8538L256.134 60.1238L256.886 58.3937C256.315 58.1457 255.466 57.8621 254.581 58.0662L255.005 59.9044ZM256.134 60.1238L255.356 61.8428C255.841 62.0619 256.042 62.2882 256.137 62.4558C256.233 62.6243 256.325 62.9176 256.264 63.454L258.139 63.6649L260.014 63.8758C260.141 62.741 259.993 61.6083 259.42 60.5965C258.847 59.5837 257.951 58.8751 256.911 58.4048L256.134 60.1238ZM258.139 63.6649L256.265 63.4507C256.19 64.1026 256.025 65.0859 255.757 66.4287L257.606 66.7987L259.456 67.1687C259.731 65.7956 259.921 64.6897 260.013 63.8792L258.139 63.6649ZM257.606 66.7987L255.75 66.4645L255.468 68.0314L257.324 68.3656L259.181 68.6998L259.463 67.1329L257.606 66.7987ZM257.324 68.3656L255.467 68.034C255.359 68.6418 255.27 69.2043 255.203 69.7198L257.074 69.9638L258.944 70.2078C259.002 69.7623 259.081 69.2593 259.181 68.6972L257.324 68.3656ZM257.074 69.9638L255.202 69.7298C255.16 70.0672 255.127 70.3382 255.105 70.5389L256.98 70.7473L258.855 70.9556C258.874 70.7803 258.904 70.529 258.946 70.1978L257.074 69.9638ZM256.98 70.7473L257.214 72.6192C257.97 72.5247 258.615 72.0943 258.994 71.4325L257.356 70.4966L255.718 69.5606C255.804 69.4098 255.944 69.2383 256.153 69.0993C256.361 68.9603 256.573 68.8969 256.746 68.8753L256.98 70.7473ZM257.356 70.4966L259.043 71.3402L259.137 71.1522L257.45 70.3085L255.762 69.4649L255.668 69.6529L257.356 70.4966ZM257.45 70.3085L259.137 71.1522L259.231 70.9642L257.544 70.1205L255.856 69.2768L255.762 69.4649L257.45 70.3085ZM257.544 70.1205L259.217 70.992L260 69.4877L258.327 68.6163L256.654 67.7449L255.871 69.2491L257.544 70.1205ZM258.327 68.6163L259.978 69.5295L260.793 68.0566L259.142 67.1434L257.491 66.2302L256.676 67.7031L258.327 68.6163ZM259.142 67.1434L260.824 67.9985C261.442 66.7818 261.957 65.8251 262.37 65.1169L260.74 64.1664L259.111 63.2158C258.646 64.0119 258.095 65.0398 257.46 66.2884L259.142 67.1434ZM260.74 64.1664L262.386 65.0878C264.102 62.0226 266.79 58.9353 270.529 55.8427L269.327 54.389L268.124 52.9352C264.134 56.2356 261.097 59.6666 259.094 63.2449L260.74 64.1664ZM269.327 54.389L270.551 55.8243L271.616 54.9155L270.392 53.4802L269.168 52.0449L268.102 52.9537L269.327 54.389ZM270.392 53.4802L271.571 54.9533L272.667 54.0759L271.489 52.6027L270.311 51.1296L269.214 52.0071L270.392 53.4802ZM271.489 52.6027L272.667 54.0759C273.433 53.4637 274.093 53.0338 274.652 52.7545L273.808 51.0672L272.964 49.3799C272.102 49.8109 271.217 50.4047 270.311 51.1296L271.489 52.6027ZM273.808 51.0672L274.594 52.7821C274.582 52.7878 274.461 52.8365 274.274 52.811C274.086 52.7854 273.98 52.7052 273.965 52.6926L275.187 51.2552L276.409 49.8178C275.976 49.4501 275.431 49.1609 274.784 49.0726C274.137 48.9845 273.536 49.1168 273.022 49.3522L273.808 51.0672ZM275.187 51.2552L273.945 52.675C273.921 52.6546 273.581 52.3529 273.56 51.7613C273.538 51.1472 273.878 50.8034 273.931 50.7535L275.218 52.1327L276.505 53.5118C276.872 53.1695 277.363 52.5332 277.331 51.6266C277.299 50.7425 276.787 50.1483 276.429 49.8355L275.187 51.2552ZM275.218 52.1327L273.902 50.7811C268.214 56.3193 264.05 62.0309 261.486 67.9265L263.216 68.679L264.946 69.4314C267.27 64.0873 271.108 58.768 276.534 53.4843L275.218 52.1327ZM263.216 68.679L261.505 67.8846C261.25 68.4326 260.921 69.0927 260.512 69.8686L262.182 70.7473L263.851 71.6259C264.278 70.8141 264.638 70.0953 264.927 69.4734L263.216 68.679ZM262.182 70.7473L260.505 69.8833L259.972 70.9175L261.649 71.7814L263.326 72.6453L263.859 71.6112L262.182 70.7473ZM261.649 71.7814L260.005 70.8565L259.441 71.8593L261.085 72.7842L262.729 73.7091L263.293 72.7063L261.649 71.7814ZM261.085 72.7842L259.407 71.9225C259.085 72.5495 258.718 73.0634 258.316 73.4813L259.675 74.7898L261.034 76.0984C261.718 75.3881 262.291 74.5649 262.763 73.646L261.085 72.7842ZM259.675 74.7898L258.341 73.4559C257.664 74.1325 257.276 74.3889 257.139 74.4513L257.92 76.1687L258.7 77.8861C259.482 77.5307 260.265 76.8678 261.009 76.1238L259.675 74.7898ZM257.92 76.1687L257.056 74.4916C256.882 74.5811 256.695 74.6208 256.347 74.4925L255.695 76.2627L255.043 78.0329C256.282 78.4896 257.579 78.4666 258.784 77.8457L257.92 76.1687ZM255.695 76.2627L256.383 74.5062C255.611 74.2038 255.166 73.8452 254.909 73.5012C254.66 73.1703 254.492 72.7308 254.478 72.086L252.592 72.1261L250.706 72.1663C250.734 73.4853 251.104 74.7171 251.89 75.765C252.666 76.7999 253.752 77.5277 255.007 78.0192L255.695 76.2627Z" fill="white" mask="url(#path-2-outside-1_7_61)"/>
<rect x="4.27783" y="4.54517" width="42.7788" height="43.0461" rx="10.4273" fill="#FF5331"/>
<ellipse cx="25.7557" cy="25.8731" rx="13.4689" ry="23.0395" transform="rotate(44.5026 25.7557 25.8731)" fill="white"/>
<path d="M25.5335 18.4482L26.8806 24.7212L33.1535 26.0682L26.8806 27.4152L25.5335 33.6882L24.1865 27.4152L17.9136 26.0682L24.1865 24.7212L25.5335 18.4482Z" fill="#303030"/>
<circle cx="37.0361" cy="14.0424" r="3.47577" transform="rotate(-77.4084 37.0361 14.0424)" fill="url(#paint0_linear_7_61)"/>
<path d="M37.8138 11.4462C38.1356 11.5181 38.44 11.6526 38.7097 11.8421C38.9795 12.0316 39.2092 12.2724 39.3859 12.5507C39.5626 12.829 39.6827 13.1394 39.7394 13.4642C39.7962 13.7889 39.7884 14.1216 39.7165 14.4434" stroke="white" stroke-width="0.386197" stroke-linecap="round"/>
<defs>
<linearGradient id="paint0_linear_7_61" x1="40.5119" y1="14.0424" x2="33.5604" y2="13.4631" gradientUnits="userSpaceOnUse">
<stop stop-color="#E7B43E"/>
<stop offset="1" stop-color="#F77E09"/>
</linearGradient>
</defs>
</svg>
