<svg width="146" height="48" viewBox="0 0 146 48" fill="none" xmlns="http://www.w3.org/2000/svg">
<g clip-path="url(#clip0_13347_2869)">
<path d="M24.2418 8.16552C23.3118 3.9681 20.9819 0.55431 20.6625 0C20.1507 0.781035 18.2958 3.79397 17.3499 7.13362C16.3213 10.8629 16.1649 14.1716 16.522 17.4284C16.8766 20.6836 18.2122 24.0207 18.2122 24.0207C18.9197 25.7767 19.9842 27.656 20.675 28.5802C21.6894 27.2224 24.021 23.1733 24.746 17.8802C25.1508 14.9362 25.17 12.3612 24.2418 8.16466V8.16552ZM20.6625 27.5362C20.2067 26.6483 19.4967 24.9638 19.4273 22.3509C19.4097 19.8302 20.3907 17.6707 20.675 17.219C20.9343 17.6707 21.7772 19.5474 21.8759 22.1267C21.942 24.6526 21.1341 26.6302 20.6616 27.5362H20.6625ZM23.9716 15.2862C23.934 16.8897 23.7484 18.575 23.5092 19.5853C23.5936 17.8448 23.3963 15.3862 23.0066 13.4759C22.6169 11.5586 21.518 8.35948 20.6399 6.87414C19.8304 8.28535 18.8335 11.0526 18.3125 13.4509C17.7873 15.8603 17.7714 18.7612 17.7714 19.6388C17.6301 18.9009 17.283 16.2836 17.3834 13.65C17.4645 11.4733 17.9563 9.24052 18.2306 8.21638C19.2583 4.78276 20.4241 2.59655 20.6407 2.24569C20.8632 2.59655 22.3334 5.29052 23.0919 8.13103C23.8504 10.9655 24.0068 13.6784 23.9716 15.2853V15.2862Z" fill="white"/>
<path d="M22.2326 29.5578H15.1685V34.4457C15.176 34.4388 15.1794 34.4345 15.1869 34.4319C16.8503 32.7112 19.5523 32.7112 21.2148 34.4319C22.8849 36.1457 22.8849 38.9302 21.2148 40.6423C21.2107 40.6535 21.2048 40.6621 21.1973 40.6673V40.6698C21.1872 40.6785 21.1797 40.6785 21.1713 40.6879C19.5113 42.3948 17.3412 43.2431 15.1685 43.2431C12.9958 43.2431 10.8065 42.3888 9.14643 40.6707C6.2094 37.6483 5.86485 32.975 8.0994 29.5595C8.39796 29.0992 8.74418 28.6578 9.14643 28.2535C10.8065 26.5379 12.9866 25.6828 15.1685 25.6828V13.9293C6.78811 13.9276 0 20.9293 0 29.5578C0 38.1862 6.78811 45.1948 15.1693 45.1948C19.5389 45.1948 23.4711 43.2914 26.2434 40.244V29.5578H22.2334H22.2326Z" fill="white"/>
<path d="M28.0938 29.6069H33.8616V31.3216H31.1186V45.1949H28.0946V29.6069H28.0938Z" fill="white"/>
<path d="M36.4337 29.6069H41.1863L42.7635 45.1949H39.8039L39.5229 41.0526H38.097L37.8161 45.1949H34.8564L36.4328 29.6069H36.4337ZM39.415 39.338L38.8965 31.5225H38.7234L38.2049 39.338H39.4142H39.415Z" fill="white"/>
<path d="M47.1715 39.7388V42.9673C47.1715 43.3681 47.4742 43.4793 47.6465 43.4793C47.9275 43.4793 48.1215 43.2345 48.1215 42.9673V39.0483C48.1215 38.5587 48.0353 38.0242 46.9114 38.0242H45.6804V36.3095H46.9549C47.8187 36.3095 48.1215 36.1095 48.1215 35.1518V31.8337C48.1215 31.5664 47.9266 31.3216 47.6465 31.3216C47.4734 31.3216 47.1715 31.4328 47.1715 31.8337V34.5949H44.1475V32.3906C44.1475 31.2992 44.2771 29.6069 46.3946 29.6069H48.9009C51.0175 29.6069 51.1472 31.2992 51.1472 32.3906V34.8845C51.1472 36.5768 50.0023 37.0449 49.0949 37V37.1561C51.1254 37.1112 51.1472 38.7147 51.1472 39.2716V42.4112C51.1472 43.5026 51.0175 45.1949 48.9009 45.1949H46.3946C44.2779 45.1949 44.1475 43.5026 44.1475 42.4112V39.7388H47.1715Z" fill="white"/>
<path d="M52.9199 29.6069H59.9188V45.1949H56.8948V31.3216H55.9439V45.1949H52.9199V29.6069Z" fill="white"/>
<path d="M61.6924 29.6069H66.445C68.5616 29.6069 68.6912 31.2992 68.6912 32.3906V37.1112C68.6912 38.2026 68.5616 39.8949 66.445 39.8949H64.7164V45.1949H61.6924V29.6069ZM65.1053 38.1802C65.4297 38.1802 65.6672 37.8906 65.6672 37.4009V32.1009C65.6672 31.6112 65.4297 31.3216 65.1053 31.3216H64.7164V38.1802H65.1053Z" fill="white"/>
<path d="M70.335 32.3906C70.335 31.2992 70.4646 29.6069 72.5821 29.6069H75.0884C77.205 29.6069 77.3347 31.2992 77.3347 32.3906V42.4112C77.3347 43.5026 77.205 45.1949 75.0884 45.1949H72.5821C70.4654 45.1949 70.335 43.5026 70.335 42.4112V32.3906ZM74.3098 31.8337C74.3098 31.5664 74.115 31.3216 73.8348 31.3216C73.6617 31.3216 73.3598 31.4328 73.3598 31.8337V42.9673C73.3598 43.3681 73.6625 43.4793 73.8348 43.4793C74.1158 43.4793 74.3098 43.2345 74.3098 42.9673V31.8337Z" fill="white"/>
<path d="M86.9703 29.6069H90.9017V45.1949H87.8777V35.419H87.7698L86.2143 45.1949H83.7949L82.2403 35.419H82.1324V45.1949H79.1084V29.6069H83.0398L85.0059 40.563L86.9711 29.6069H86.9703Z" fill="white"/>
<path d="M106.33 29.6069H110.261V45.1949H107.237V35.419H107.129L105.574 45.1949H103.154L101.6 35.419H101.492V45.1949H98.4678V29.6069H102.399L104.365 40.563L106.331 29.6069H106.33Z" fill="white"/>
<path d="M112.036 29.6069H118.171V31.3216H115.06V36.1535H118.171V37.8681H115.06V43.4794H118.301V45.194H112.036V29.6061V29.6069Z" fill="white"/>
<path d="M127.31 43.4802H127.915V48.0009H125.193V45.1949H122.017V48.0009H119.296V43.4802H119.447C120.268 43.4802 120.311 42.5 120.311 41.9216V29.6078H127.311V43.4811L127.31 43.4802ZM123.334 42.2328C123.334 42.8569 123.205 43.213 122.925 43.4802H124.285V31.3216H123.334V42.2328Z" fill="white"/>
<path d="M129.3 29.6069H132.325V37.3785H132.433L133.685 29.6069H136.709V45.1949H133.685V37.4233H133.577L132.325 45.1949H129.3V29.6069Z" fill="white"/>
<path d="M139.671 29.6069H144.425L146.001 45.1949H143.042L142.76 41.0526H141.335L141.054 45.1949H138.095L139.671 29.6069ZM142.652 39.338L142.134 31.5225H141.962L141.443 39.338H142.652Z" fill="white"/>
</g>
<defs>
<clipPath id="clip0_13347_2869">
<rect width="146" height="48" fill="white"/>
</clipPath>
</defs>
</svg>
